<?xml version="1.0" encoding="UTF-8"?>
<svg id="Layer_3" data-name="Layer 3" xmlns="http://www.w3.org/2000/svg" xmlns:xlink="http://www.w3.org/1999/xlink" viewBox="0 0 382.11 150">
  <defs>
    <style>
      .cls-1 {
        opacity: .7;
      }

      .cls-2 {
        fill: #111112;
      }

      .cls-2, .cls-3, .cls-4, .cls-5, .cls-6, .cls-7, .cls-8, .cls-9, .cls-10, .cls-11, .cls-12, .cls-13, .cls-14, .cls-15, .cls-16, .cls-17, .cls-18, .cls-19 {
        stroke-width: 0px;
      }

      .cls-3 {
        fill: #0f1010;
      }

      .cls-4 {
        fill: #131314;
      }

      .cls-5 {
        fill: #608e71;
      }

      .cls-6 {
        fill: none;
      }

      .cls-7 {
        fill: #a43149;
      }

      .cls-8 {
        fill: #040505;
      }

      .cls-9 {
        fill: #3d8abd;
      }

      .cls-10 {
        fill: url(#linear-gradient-2);
      }

      .cls-11 {
        fill: #111213;
      }

      .cls-12 {
        fill: url(#linear-gradient);
        mix-blend-mode: multiply;
      }

      .cls-20 {
        clip-path: url(#clippath);
      }

      .cls-13 {
        fill: #131414;
      }

      .cls-14 {
        fill: #050606;
      }

      .cls-15 {
        fill: #0c0c0d;
      }

      .cls-21 {
        filter: url(#luminosity-noclip);
      }

      .cls-16 {
        fill: #e4a45b;
      }

      .cls-22 {
        mask: url(#mask-1);
      }

      .cls-23 {
        mask: url(#mask);
      }

      .cls-17 {
        fill: #45395c;
      }

      .cls-18 {
        fill: #101111;
      }

      .cls-19 {
        fill: #0f1011;
      }
    </style>
    <clipPath id="clippath">
      <polygon class="cls-6" points="-807.83 -187.96 -1232.75 -187.96 -1734.77 -187.96 -2120.38 -187.96 -2577.29 -187.96 -2577.29 498.06 -2577.29 1077.01 -2577.29 1812.04 -2564.83 1812.04 -2139.91 1812.04 -1732.93 1812.04 -1347.32 1812.04 -845.31 1812.04 -579.17 1812.04 -579.17 1412.47 -579.17 658.74 -579.17 79.78 -579.17 -187.96 -807.83 -187.96"/>
    </clipPath>
    <filter id="luminosity-noclip" x="-802.12" y="-627.54" width="879.17" height="879.17" color-interpolation-filters="sRGB" filterUnits="userSpaceOnUse">
      <feFlood flood-color="#fff" result="bg"/>
      <feBlend in="SourceGraphic" in2="bg"/>
    </filter>
    <filter id="luminosity-noclip-2" x="-802.12" y="-9004.04" width="879.17" height="32766" color-interpolation-filters="sRGB" filterUnits="userSpaceOnUse">
      <feFlood flood-color="#fff" result="bg"/>
      <feBlend in="SourceGraphic" in2="bg"/>
    </filter>
    <mask id="mask-1" x="-802.12" y="-9004.04" width="879.17" height="32766" maskUnits="userSpaceOnUse"/>
    <linearGradient id="linear-gradient" x1="-2437.48" y1="2537.8" x2="-3316.65" y2="2537.8" gradientTransform="translate(2514.53 -2725.75)" gradientUnits="userSpaceOnUse">
      <stop offset=".27" stop-color="#000"/>
      <stop offset="1" stop-color="#fff"/>
    </linearGradient>
    <mask id="mask" x="-802.12" y="-627.54" width="879.17" height="879.17" maskUnits="userSpaceOnUse">
      <g class="cls-21">
        <g class="cls-22">
          <path class="cls-12" d="m-800.62,251.63c-.38,0-.77-.15-1.06-.44-.59-.59-.59-1.54,0-2.12L74.49-627.1c.59-.59,1.54-.59,2.12,0,.59.59.59,1.54,0,2.12L-799.56,251.19c-.29.29-.68.44-1.06.44Z"/>
        </g>
      </g>
    </mask>
    <linearGradient id="linear-gradient-2" x1="-2437.48" y1="2537.8" x2="-3316.65" y2="2537.8" gradientTransform="translate(2514.53 -2725.75)" gradientUnits="userSpaceOnUse">
      <stop offset=".27" stop-color="#fff"/>
      <stop offset="1" stop-color="#fff"/>
    </linearGradient>
  </defs>
  <g class="cls-20">
    <g class="cls-1">
      <g class="cls-23">
        <path class="cls-10" d="m-800.62,251.63c-.38,0-.77-.15-1.06-.44-.59-.59-.59-1.54,0-2.12L74.49-627.1c.59-.59,1.54-.59,2.12,0,.59.59.59,1.54,0,2.12L-799.56,251.19c-.29.29-.68.44-1.06.44Z"/>
      </g>
    </g>
  </g>
  <g>
    <path class="cls-17" d="m144.4,25.98c6.32-6.43,17.78-6.69,24.28-.42.5.58,1.35,1.12,1.23,2.01-1.41,2.07-3.25,3.81-4.97,5.62-1.57-1.5-3.01-3.31-5.15-3.99-3.36-1.01-7.51-.47-9.8,2.42-3.15,4.01-3.22,10.07-.55,14.34,2.16,3.31,6.71,4.15,10.27,2.93,2.45-.93,4.04-3.26,4.77-5.7-2.46-.21-4.94.05-7.41-.23-.23-1.93-.63-4,.21-5.84,5.4-.31,10.82-.03,16.22-.13.88,6.19-1.61,12.91-6.64,16.74-6.55,5.08-16.74,4.41-22.62-1.41-7.06-6.86-7.07-19.58.16-26.32Z"/>
    <path class="cls-17" d="m179.21,21.7c2.24-.19,4.49,0,6.73-.07.88,2.44.34,5.07.45,7.59.14,6.7-.09,13.41.15,20.1,3.85.68,7.81-.2,11.63.51.36,2.09.13,4.23.13,6.34-3.17.72-6.46.21-9.68.36-3.38-.13-6.8.33-10.14-.33-.1-10.72,0-21.44-.06-32.16.09-.79-.22-2.03.78-2.35Z"/>
    <path class="cls-17" d="m212.72,21.66c7.49-2.23,16.13,1.46,19.8,8.33,3.72,6.6,2.96,15.57-2.11,21.28-5.64,6.75-16.53,7.78-23.53,2.57-7.19-5.15-9.11-15.82-4.97-23.47,2.2-4.22,6.21-7.46,10.81-8.72Zm2.21,7.34c-3.5.86-5.85,4.23-6.36,7.67-.46,3.52-.1,7.47,2.39,10.21,2.35,2.61,6.3,3.01,9.51,2.05,3.78-1.29,5.74-5.45,5.71-9.24.22-3.48-.91-7.32-3.82-9.44-2.11-1.58-4.92-1.73-7.43-1.24Z"/>
    <path class="cls-17" d="m281.55,21.68c1.71-.11,3.44-.1,5.15,0,1.01.03,1.5.99,1.83,1.82,4.04,10.02,8.07,20.06,12.14,30.07.42.94.64,1.94.69,2.97-2.68-.25-5.6.6-8.11-.51-1.15-1.91-1.36-4.26-2.63-6.11-1.68-.65-3.6-.21-5.37-.32-2.54.16-5.18-.35-7.66.29-1.15,1.95-1.69,4.18-2.53,6.26-2.72.7-5.56.36-8.33.29.19-.97.42-1.94.8-2.86,4.08-10.01,8.1-20.04,12.14-30.06.34-.84.83-1.82,1.87-1.84Zm2.39,11.24c-1.16,3.15-2.69,6.21-3.37,9.51,2.36.06,4.72.06,7.08,0-.7-3.3-2.2-6.36-3.38-9.5-.08,0-.25-.01-.34-.01Z"/>
    <path class="cls-17" d="m306.47,21.71c2.23-.2,4.47,0,6.71-.08.22.79.51,1.57.51,2.39.06,8.43-.1,16.86.08,25.29,3.87.61,7.81,0,11.72.42.12,2.17.1,4.35.01,6.53-3.35.57-6.77.18-10.15.29-3.2-.12-6.45.31-9.62-.32-.13-10.73,0-21.46-.06-32.18.11-.79-.23-2.05.8-2.33Z"/>
    <path class="cls-17" d="m240.31,21.93c3.01-.53,6.08-.21,9.12-.3,3.48.03,7.41.19,10.08,2.74,2.51,2.61,2.83,6.84,1.42,10.07-.56,1.47-2.03,2.28-2.79,3.61,2.21.76,4.54,1.8,5.64,4.01,1.95,4,1.21,9.57-2.58,12.25-3.05,2.26-7.03,2.31-10.66,2.24-3.41-.11-6.84.25-10.22-.26-.14-11.45-.12-22.91-.01-34.36Zm7.84,5.92c-.05,2.49-.05,4.98.01,7.47,1.91-.03,4.36-.04,5.45-1.94.46-1.17.47-2.56.04-3.74-1.17-1.82-3.59-1.79-5.51-1.8Zm.05,15.03c.01,2.49-.55,5.15.44,7.51,2.27-.12,4.87.25,6.77-1.29,2.16-2.08.87-6.36-2.2-6.7-1.58-.07-3.87-.89-5,.47Z"/>
    <path class="cls-17" d="m142.11,66.51c2.53-.21,5.07-.17,7.59-.06.19,1.27.35,2.54.33,3.82-.04,9.47,0,18.94-.01,28.41-.08.8.02,1.8-.65,2.39-2.31.16-4.64.21-6.95-.04-.6-.63-.34-1.61-.43-2.38.1-10.71-.14-21.43.12-32.14Z"/>
    <path class="cls-17" d="m157.38,66.78c1.41-.76,3.15-.29,4.7-.43,1.33.11,3.18-.35,3.89,1.16,3.2,4.92,6.34,9.89,9.52,14.83,1.13,1.72,2.09,3.56,3.51,5.07.28-6.63-.03-13.28.15-19.91-.08-.64.21-.98.86-1.04,2.1-.17,4.22-.15,6.32,0,.98.05.67,1.42.78,2.08-.08,10.62.09,21.25-.09,31.87-.16.17-.48.51-.64.68-2.31.1-4.66.25-6.94-.1-1.27-.88-1.89-2.38-2.75-3.61-3.81-5.92-7.52-11.9-11.43-17.75-.01,6.36-.02,12.71,0,19.06-.13.79.29,2.24-.86,2.4-2.13.16-4.27.14-6.4,0-1.11-.61-.67-1.98-.78-3.01.13-10.43-.17-20.88.15-31.3Z"/>
    <path class="cls-17" d="m195.16,66.5c2.34-.21,4.74-.28,7.07.07.44,2.37.12,4.81.2,7.2-.09,9.01.19,18.04-.14,27.03-2.13.73-4.52.3-6.74.31-1.14.09-.92-1.17-.99-1.9-.02-10.21.01-20.42-.01-30.63.17-.61-.27-1.98.61-2.08Z"/>
    <path class="cls-17" d="m207.09,69.72c.13-1.12-.49-3.32,1.27-3.31,6.93-.1,13.87,0,20.8-.05.87.14,2.43-.35,2.5.99-.17,1.9.84,4.54-.75,5.93-2.39.27-4.81-.16-7.19.24-.27.83-.23,1.71-.24,2.56.02,7.72.02,15.44.01,23.16-.01.72-.2,2.05-1.23,1.89-2.18-.14-4.72.6-6.67-.47-.28-9.02.03-18.05-.16-27.08-2.39-.38-4.81-.1-7.21-.25-1.67-.39-.96-2.39-1.13-3.6Z"/>
    <path class="cls-17" d="m236.99,66.62c2.45-.46,5.01-.32,7.48-.08.47,2.38.21,4.83.25,7.24-.16,9,.21,18.04-.19,27.03-2.42.71-5.15.4-7.65.07-.13-10.2,0-20.39-.06-30.58,0-1.23-.05-2.47.17-3.68Z"/>
    <path class="cls-17" d="m261.89,68.51c.39-.85.69-2.21,1.92-2.09,2.04-.08,4.12-.23,6.14.16.57.5.77,1.27,1.1,1.93,3.56,8.9,7.18,17.78,10.75,26.67.75,1.95,1.76,3.84,2.08,5.94-2.63,0-5.27.22-7.88-.09-1.72-1.84-1.53-4.78-3.21-6.63-4.18-.29-8.43-.25-12.61-.03-1.75,1.8-1.4,4.87-3.24,6.55-2.55.59-5.27.12-7.88.21.32-2.11,1.34-3.99,2.09-5.96,3.57-8.88,7.18-17.75,10.74-26.64Zm1.04,18.69c2.37.03,4.74.03,7.11-.02-.7-3.48-2.35-6.66-3.53-9.99-1.3,3.28-2.94,6.51-3.58,10Z"/>
    <path class="cls-17" d="m283.33,66.64c.8-.28,1.65-.27,2.5-.28,6.36.02,12.71.02,19.07,0,.83.05,1.73-.09,2.51.28.51,2.09.16,4.3.15,6.43-2.39.53-4.85.13-7.26.36-1.19-.07-.77,1.35-.91,2.1.03,7.71,0,15.41.03,23.12-.05.88.2,2.01-.82,2.45-2.14.13-4.3.13-6.44,0-.17-.17-.51-.53-.68-.7-.29-8.93.24-17.9-.25-26.81-2.64-.62-5.45.28-8.04-.64.03-2.1-.17-4.22.15-6.3Z"/>
    <path class="cls-17" d="m312.64,66.47c2.51-.03,5.08-.39,7.56.16.39,6.99.05,14.01.17,21-.09,4.35.17,8.73-.12,13.08-2.06.93-4.51.32-6.72.41-1.04.18-1.11-1.21-1.15-1.9.02-5.97-.07-11.93.01-17.9.29-4.94-.44-9.93.25-14.85Z"/>
    <path class="cls-17" d="m323.63,66.51c2.86-.11,5.79-.4,8.62.09.67.85.99,1.89,1.39,2.88,2.06,5.52,4.24,10.99,6.3,16.51.33.94.79,1.83,1.34,2.67,3.06-7.23,5.47-14.75,8.65-21.92,2.78-.8,5.83-.24,8.72-.27-.59,2.21-1.62,4.28-2.48,6.4-3.67,8.78-7.37,17.54-11.02,26.32-.35.72-.65,1.56-1.45,1.88-1.73.17-3.49.19-5.21-.04-.99-.69-1.28-1.94-1.76-2.98-4.3-10.54-8.95-20.95-13.09-31.55Z"/>
    <path class="cls-17" d="m362.07,67.35c.05-1.31,1.55-.87,2.41-.99,5.75.06,11.49-.07,17.24.08.36,2.04.39,4.13.19,6.18-.48.91-1.54.7-2.39.75-3.02.06-6.04-.17-9.06.09-.99,1.89-.24,4.23-.47,6.29,3.57,1.15,7.41.02,11.07.65.86,1.79.35,4.1.34,6.08-.17.17-.52.49-.69.66-3.41.31-6.85-.17-10.24.21-.94,1.76-.36,4.12-.39,6.11.19.16.56.48.75.64,3.61.2,7.24-.04,10.87.12.19,2.19,1.02,4.99-.38,6.85-5.8.18-11.62.02-17.42.08-.88.18-1.97-.34-1.84-1.36-.02-10.82-.08-21.64.03-32.45Z"/>
    <g>
      <path class="cls-14" d="m147.14,112.73c.64,0,1.29,0,1.94,0,1.72,4.5,3.61,8.93,5.3,13.45-2.34.56-2.55-2.17-3.28-3.69-2.02-.02-4.04-.02-6.06.04-.7,1.53-.81,4.11-3.14,3.72,1.5-4.6,3.53-9,5.24-13.53Zm-1.36,8.35c1.58,0,3.16,0,4.74-.02-.75-2.08-1.54-4.15-2.32-6.22-1.05,1.97-1.78,4.09-2.42,6.23Z"/>
      <path class="cls-14" d="m158.66,113.14c2.63-.99,5.84-.75,8.06,1.09-1.17,2.28-3.4-.71-5.24-.13-4.9,0-6.33,7.19-2.65,9.8,1.8,1.39,4.15.85,6.15.29.04-1.02.08-2.05.11-3.07-1.12-.12-2.61.2-2.91-1.3,1.42.05,2.84.09,4.27.12,0,1.79-.02,3.59-.02,5.39-2.69.86-5.89,1.58-8.43-.03-4.35-2.57-4.06-10.16.68-12.16Z"/>
      <path class="cls-14" d="m173.44,112.8c.62-.05,1.25-.09,1.88-.13,1.85,4.42,3.6,8.89,5.36,13.35-.46.02-1.38.06-1.84.08-.45-1.2-.89-2.39-1.34-3.58-2.03-.04-4.06-.04-6.08-.02-.43,1.15-.85,2.3-1.25,3.46-.49.05-1.48.13-1.97.17,1.65-4.48,3.55-8.87,5.25-13.32Zm-1.46,8.25c1.65.03,3.32.03,4.98-.03-.88-2.05-1.67-4.15-2.49-6.23-.9,2.06-1.67,4.17-2.49,6.26Z"/>
      <path class="cls-14" d="m187.64,117.73c.02-1.76-.16-3.56.4-5.25.24,4.38-.39,8.81.35,13.15.51-4.13-.13-8.3.34-12.43.25-.06.76-.17,1.01-.23,2.5,3.27,4.83,6.69,7.62,9.72.19-3.28,0-6.56.09-9.84.37.03,1.11.09,1.48.12.07,4.41.04,8.83-.02,13.24-.32-.03-.95-.1-1.27-.13-2.65-3.33-5.09-6.85-7.88-10.07-.16,3.4-.02,6.81-.1,10.21-.64.03-1.27.04-1.91.04-.2-2.83-.08-5.68-.12-8.52Z"/>
      <path class="cls-14" d="m202.36,118.1c-1.49-2.23.45-5.53,3.08-5.49,1.48-.08,3.39.02,4.22,1.47-.15.27-.45.79-.6,1.06-1.28-.57-2.71-1.6-4.14-.88-1.24.45-1.87,2.08-.82,3.07,1.43,1.02,3.28,1.2,4.75,2.17,1.4.94,1.29,2.9.84,4.33-1.36,2.98-5.74,3.12-7.97,1.07-.56-.53-.14-1.61.69-1.25,1.35.4,2.67,1.61,4.14.94,1.55-.24,2.26-2.36,1.28-3.51-1.63-1.33-4.21-1.14-5.47-2.97Z"/>
      <path class="cls-14" d="m226.52,112.71c3.5,0,7-.02,10.5.02.01.34.03,1.04.04,1.38-1.44.04-2.87.08-4.31.12-.13,3.98.19,7.97-.21,11.94-.39,0-1.16,0-1.54,0-.4-3.95-.1-7.92-.2-11.88-1.46-.1-2.92-.15-4.38-.2.03-.35.08-1.04.1-1.38Z"/>
      <path class="cls-14" d="m255.55,112.74c.62-.02,1.24-.03,1.87-.05,1.83,4.45,3.61,8.91,5.36,13.39-2.39.68-2.51-2.03-3.21-3.57-2.02-.04-4.04-.04-6.05-.01-.73,1.5-.93,4.27-3.26,3.64,1.68-4.5,3.57-8.92,5.3-13.41Zm-1.47,8.32c1.61.02,3.23.03,4.86.03-.73-2.12-1.54-4.2-2.37-6.29-.94,2.04-1.72,4.15-2.49,6.25Z"/>
      <path class="cls-14" d="m273.93,112.74c.39-.02,1.17-.06,1.56-.08.16,4.52.05,9.05.06,13.57-1.57.01-2.32-1.44-3.17-2.5-1.76-2.32-3.53-4.64-5.31-6.95-.28-.36-.57-.72-.84-1.07-.13,3.39.02,6.78-.07,10.17-.32,0-.94,0-1.26,0,0-4.3-.12-8.61.04-12.91.29-.05.89-.14,1.19-.19,2.6,3.27,4.94,6.77,7.76,9.88.14-3.31.06-6.62.06-9.94Z"/>
      <path class="cls-14" d="m280.84,112.82c1.79-.43,4.03-.39,5.35,1.08.03.53-.22.9-.75,1.09-1.32-.45-2.77-1.49-4.16-.64-1.27.39-1.56,2.43-.41,3.13,1.57,1.01,3.67,1.08,5,2.48,1.55,1.9.47,5.07-1.75,5.92-2.11.77-4.68.32-6.23-1.35.35-1.89,2.19-.25,3.28.02,1.73.88,4.24-.83,3.61-2.82-.82-1.72-3.07-1.63-4.54-2.48-2.78-1.14-2.18-5.67.58-6.44Z"/>
      <path class="cls-14" d="m307.32,112.64c.61.05,1.22.1,1.84.15,1.71,4.45,3.6,8.84,5.25,13.32-.49-.04-1.47-.11-1.96-.14-.39-1.15-.71-2.34-1.3-3.4-2.01-.2-4.03-.08-6.04-.05-.42,1.15-.8,2.32-1.34,3.42-.46.05-1.39.13-1.85.18,1.73-4.52,3.49-9.03,5.4-13.48Zm.81,2.15c-.82,2.08-1.6,4.18-2.48,6.25,1.66.04,3.31.05,4.98.01-.82-2.09-1.59-4.2-2.5-6.26Z"/>
      <path class="cls-14" d="m326.04,112.84c.61-.07,1.21-.14,1.83-.21-.08,4.49.23,8.99-.13,13.46-.41.02-1.24.05-1.65.07-.03-4.44.04-8.88-.05-13.32Z"/>
      <path class="cls-14" d="m335.19,112.83c2.17-.48,4.7-.36,6.45,1.16,3.03,2.61,3.12,7.87.23,10.61-2.48,2.23-6.69,2.21-9.13-.05-3.49-3.3-2.42-10.36,2.45-11.72Zm-.01,1.76c-3.59,1.79-3.52,7.95.1,9.68,1.87.63,4.33.5,5.64-1.19,1.42-1.86,1.53-4.53.51-6.6-1.07-2.24-4.12-2.97-6.26-1.89Z"/>
      <path class="cls-14" d="m346.68,112.51c.61.24,1.39.28,1.79.9,2.41,3.01,4.57,6.21,7.1,9.12.15.14.45.43.6.58.34-3.45-.59-7.06.65-10.37.42,4.32.28,8.68.12,13.01-.25.04-.76.12-1.02.17-2.54-3.26-4.86-6.71-7.66-9.77-.23,3.33-.03,6.67-.14,10-.36,0-1.09.02-1.45.02-.13-4.55-.08-9.11.01-13.66Z"/>
      <path class="cls-14" d="m364.7,112.7c.62,0,1.24.01,1.87.02,1.77,4.5,3.65,8.95,5.31,13.49-2.37.5-2.51-2.21-3.29-3.74-2.01,0-4.03,0-6.04.06-.69,1.52-.83,4.18-3.16,3.69,1.58-4.57,3.53-9.02,5.3-13.53Zm.88,2.1c-.82,2.08-1.65,4.15-2.32,6.28,1.58,0,3.16,0,4.74-.01-.69-2.13-1.48-4.23-2.42-6.27Z"/>
      <path class="cls-14" d="m182.89,112.95c.44-.06,1.32-.19,1.77-.26-.2,4.48-.2,8.98,0,13.46-.45-.07-1.32-.2-1.76-.27-.03-4.31.01-8.62,0-12.93Z"/>
      <path class="cls-14" d="m289.32,112.93c.3-.04.9-.13,1.19-.17,2.62,3.36,5.13,6.81,7.82,10.12.04-3.41.01-6.82.02-10.24.4.05,1.21.15,1.61.2.08,4.47.03,8.95,0,13.42-1.64-.05-2.38-1.57-3.27-2.68-1.98-2.56-3.86-5.2-5.98-7.63-.05,3.38.06,6.77-.07,10.15-.33-.09-.98-.28-1.31-.36-.16-4.27-.12-8.54-.01-12.81Z"/>
      <path class="cls-14" d="m313.37,113c3.48-.12,6.96-.2,10.44.08-.82,1.52-2.9.66-4.3.87-.2,3.92.16,7.85-.16,11.76-.32.08-.98.24-1.31.31-.14-3.95-.13-7.9-.02-11.85-1.51-.46-3.88.44-4.66-1.17Z"/>
      <path class="cls-14" d="m146.74,136.65c2.15-.57,4.69-.55,6.51.88,3.72,2.77,3.4,9.45-.76,11.66-2.44,1.24-5.76,1.08-7.81-.85-3.49-3.19-2.59-10.07,2.06-11.69Zm.47,1.58c-2.89,1.19-3.38,5.08-2.21,7.66,1.33,3.1,6.36,3.32,8.08.48,1.02-1.55.89-3.57.57-5.32-.71-2.66-4.01-3.99-6.44-2.82Z"/>
      <path class="cls-14" d="m171.96,137.49c2.72-1.82,6.6-1.55,9.17.46-.43.64-1.02,1.31-1.8.74-2.12-1.13-4.93-1.25-6.73.53-2.23,2.5-1.87,7.31,1.35,8.83,1.7.9,3.63.33,5.37-.1,0-1.06.01-2.12.02-3.17-.82-.03-1.63-.07-2.45-.1,0-.32.01-.95.02-1.26,1.37-.02,2.75-.03,4.12-.05-.06,1.79.27,3.65-.2,5.4-2.12,1.38-4.93,1.47-7.32.83-4.88-1.69-5.64-9.18-1.55-12.1Z"/>
      <path class="cls-14" d="m187.9,136.41c.7.16,1.86-.32,2.11.63,1.72,4.27,3.57,8.51,5.05,12.88-.62-.06-1.23-.13-1.84-.19-.44-1.17-.88-2.33-1.31-3.49-2.02-.03-4.05-.03-6.07-.01-.71,1.53-.88,4.21-3.24,3.65,1.66-4.53,3.59-8.96,5.31-13.47Zm.92,2.11c-.83,2.08-1.63,4.16-2.42,6.25,1.64.06,3.28.03,4.92-.11-.87-2.03-1.61-4.12-2.5-6.14Z"/>
      <path class="cls-14" d="m206.27,136.45c.38-.02,1.13-.06,1.51-.08.25,4.51.06,9.03.12,13.54-1.61.12-2.32-1.43-3.2-2.48-1.76-2.29-3.49-4.61-5.25-6.89-.3-.36-.6-.73-.9-1.08-.23,3.31.16,6.63-.19,9.93-.25.09-.75.27-.99.36-.38-4.33-.21-8.74-.09-13.1.33-.02.98-.05,1.31-.08,1.93,2.74,4.04,5.33,6.04,8.03.45.5.79,1.21,1.47,1.44.47-3.15.05-6.41.19-9.61Z"/>
      <path class="cls-14" d="m211.45,136.4c.61.04,1.23.09,1.86.13-.08,4.46,0,8.91-.05,13.36-.42-.02-1.25-.07-1.68-.09-.34-4.45-.04-8.94-.13-13.41Z"/>
      <path class="cls-14" d="m228.12,136.41c2.74.04,5.48,0,8.22.06,0,.33.01.99.02,1.33-2.14.07-4.28.07-6.42.05-.04,1.49-.05,2.99-.04,4.49,1.73,0,3.48,0,5.22,0,0,.32.02.95.03,1.26-1.75.23-3.5.28-5.26.24,0,1.47,0,2.95,0,4.42,2.08.03,4.17-.08,6.25.09.07.36.22,1.09.29,1.45-2.79.05-5.59.06-8.38-.02.08-4.46-.02-8.92.06-13.38Z"/>
      <path class="cls-14" d="m238.64,136.45c2.59.13,5.33-.42,7.82.47,4.69,1.8,5.16,9.24,1.01,11.87-2.64,1.67-5.89.88-8.83,1.05,0-4.46.02-8.93,0-13.39Zm1.86,1.4c-.02,3.49-.08,6.99.03,10.48,1.68-.07,3.4.13,5.04-.31,3.33-1.39,3.68-6.32,1.46-8.83-1.72-1.69-4.34-1.3-6.53-1.34Z"/>
      <path class="cls-14" d="m260.6,136.56c2.26-.52,4.89-.35,6.63,1.35-.16.27-.48.8-.64,1.08-1.8-.59-3.69-1.77-5.6-.83-4.36,1.51-4.12,9.16.5,10.1,1.86.65,3.51-.7,5.27-1.01,1.06.74-.34,1.53-.92,1.9-2.39,1.29-5.73,1.16-7.76-.76-3.54-3.33-2.45-10.51,2.5-11.84Z"/>
      <path class="cls-14" d="m287.13,136.39c.6.03,1.21.08,1.82.11,1.73,3.03,3.27,6.19,5.24,9.08,1.57-2.85,3.05-5.74,4.71-8.54.34-.96,1.43-.46,2.19-.54-.13,4.41.06,8.81-.1,13.22-.39.05-1.17.14-1.56.19-.04-3.44.05-6.87-.04-10.31-2.15,2.68-2.95,6.26-5.44,8.67-2.05-2.85-3.45-6.08-5.33-9.03-.02,3.57.03,7.15-.03,10.72-.36-.08-1.09-.25-1.45-.34-.08-4.41-.02-8.83,0-13.24Z"/>
      <path class="cls-14" d="m304.46,136.43c2.76.02,5.52,0,8.28.04v1.34c-2.15.06-4.29.06-6.43.05-.03,1.5-.05,2.99-.04,4.49,1.71.39,4.37-.95,5.43.83-1.38,1.31-3.65.43-5.39.63-.06,1.51-.05,3.02.03,4.53,2.15-.09,4.32-.13,6.47.16-.03.33-.1.99-.14,1.32-2.72.05-5.45.01-8.18.06-.06-4.48-.03-8.96-.02-13.45Z"/>
      <path class="cls-14" d="m216.02,136.45c3.35,0,6.71-.09,10.06.06-2.13,4.23-5.39,7.77-7.93,11.75,2.43.09,4.89-.15,7.32.14.09.34.28,1.02.38,1.36-3.46.12-6.92.09-10.38.02,1.91-4.38,5.53-7.77,7.83-11.96-2.43.03-4.87.05-7.3,0l.03-1.38Z"/>
      <path class="cls-14" d="m281.65,136.49c.49,0,1.46.02,1.95.03.06,4.42-.16,8.84.02,13.25l-1.97.02c0-4.44.02-8.87-.01-13.31Z"/>
    </g>
    <path class="cls-4" d="m182.43,112.48c.74.07,1.49.14,2.23.21-.45.07-1.33.2-1.77.26.02,4.31-.02,8.62,0,12.93.44.07,1.32.2,1.76.27-.75.08-1.5.16-2.24.25.02-4.64-.08-9.28,0-13.92Z"/>
    <path class="cls-19" d="m188.05,112.48c.57.16,1.13.32,1.7.48-.25.06-.76.17-1.01.23-.46,4.13.17,8.3-.34,12.43-.74-4.33-.11-8.77-.35-13.15Z"/>
    <g>
      <path class="cls-8" d="m211.38,112.71c3.52,0,7.03-.04,10.54.03,0,.34,0,1.02,0,1.36-1.47.05-2.94.1-4.4.21-.12,3.97.03,7.93-.1,11.9-.58-.07-1.17-.14-1.75-.21-.02-3.95.06-7.89-.05-11.84-1.43,0-2.85,0-4.27-.02l.02-1.43Z"/>
      <path class="cls-8" d="m239.13,112.7c2.72.23,6.41-.84,8.21,1.86,1.42,2.3-.33,4.89-2.54,5.78,1.34,1.94,2.88,3.75,4.07,5.81-.64-.02-1.29-.04-1.93-.06-1.39-1.73-2.52-3.68-4.03-5.31-.49-.1-1.45-.31-1.94-.42-.06,1.89-.06,3.78-.05,5.67-.59.05-1.17.11-1.75.17-.1-4.5-.04-9-.04-13.5Zm1.82,1.37c-.03,1.72-.04,3.45-.01,5.17,2.15.16,4.77-.16,5.34-2.67-.52-2.53-3.25-2.6-5.33-2.5Z"/>
      <path class="cls-8" d="m373.87,112.57c.62.21,2.03-.08,1.76,1.05.03,3.63-.01,7.27,0,10.91,1.97-.02,3.96-.09,5.91.25-.02.33-.05.99-.07,1.33-2.53.01-5.06,0-7.59.04-.07-4.52-.06-9.05,0-13.57Z"/>
      <path class="cls-8" d="m158.59,136.43c2.75.23,6.5-.84,8.28,1.94,1.11,2.32-.34,4.77-2.56,5.67,1.24,2,2.77,3.81,4.03,5.8-.53-.07-1.59-.2-2.12-.27-1.51-1.64-2.43-3.78-4.12-5.26-.42-.02-1.25-.07-1.67-.1,0,1.87,0,3.74-.08,5.61-.47,0-1.4-.02-1.87-.02.05-4.46-.13-8.92.11-13.36Zm1.9,1.32c-.21,1.73-.2,3.49,0,5.23,1.36-.16,2.95.18,4.09-.76,1-.72,1-2.18.59-3.22-1.11-1.41-3.1-1.12-4.67-1.24Z"/>
      <path class="cls-8" d="m269.7,136.43c2.64.22,6.01-.75,8,1.53,1.47,2.24.16,5.2-2.29,6.02,1.2,2.06,2.82,3.84,4.03,5.9-4.07.64-3.92-6.22-7.94-5.68,0,1.87,0,3.74,0,5.61-.48-.01-1.45-.03-1.93-.03.03-4.45-.16-8.91.13-13.35Zm1.85,1.33c-.06,1.73-.06,3.47-.03,5.2,1.38-.15,2.97.2,4.14-.72,1.04-.73.96-2.24.58-3.31-1.14-1.36-3.12-1.05-4.7-1.17Z"/>
    </g>
    <path class="cls-11" d="m264.48,112.41c.54.12,1.09.25,1.64.39-.29.05-.89.14-1.19.19-.16,4.3-.05,8.61-.04,12.91.32,0,.94,0,1.26,0,.09-3.39-.06-6.78.07-10.17.28.35.56.71.84,1.07-1.06,3.07-.41,6.34-.56,9.51-.68.02-1.35.03-2.02.05-.09-4.65-.06-9.3-.01-13.94Z"/>
    <path class="cls-13" d="m288.82,112.46c.56.1,1.12.2,1.69.3-.29.04-.89.13-1.19.17-.1,4.27-.14,8.54.01,12.81.33.09.98.27,1.31.36.1.02.29.08.39.1-.73.07-1.46.14-2.19.22-.06-4.66-.04-9.31-.03-13.96Z"/>
    <path class="cls-15" d="m313.15,112.65c3.63-.16,7.28-.05,10.91-.1,0,.45-.01,1.34-.02,1.79-1.4.01-2.79.02-4.19.02-.25,3.97-.08,7.95-.11,11.92-.68,0-1.35,0-2.02,0-.06-3.93.02-7.85-.03-11.78-1.42-.06-2.83-.08-4.25-.08-.1-.6-.2-1.19-.29-1.78Zm.21.35c.77,1.61,3.15.71,4.66,1.17-.12,3.95-.13,7.9.02,11.85.33-.08.98-.23,1.31-.31.32-3.91-.03-7.84.16-11.76,1.39-.21,3.48.64,4.3-.87-3.48-.27-6.96-.2-10.44-.08Z"/>
    <path class="cls-2" d="m355.82,112.59c.43.02,1.29.04,1.72.06.05,4.56.14,9.13-.06,13.69-.53-.14-1.05-.29-1.57-.43.25-.05.76-.13,1.02-.17.16-4.33.3-8.69-.12-13.01-1.24,3.31-.31,6.92-.65,10.37-.15-.14-.45-.43-.6-.58.44-3.3.09-6.62.25-9.93Z"/>
    <path class="cls-3" d="m162.17,119.82c1.54-.57,3.17-.4,4.77-.26-.16,1.91.4,4-.53,5.77,0-1.8.02-3.6.02-5.39-1.43-.03-2.85-.06-4.27-.12Z"/>
    <path class="cls-18" d="m196.81,136.1c.59.16,1.18.32,1.77.49-.33.02-.98.06-1.31.08-.12,4.35-.28,8.77.09,13.1.25-.09.75-.28.99-.36.35-3.3-.03-6.62.19-9.93.3.35.6.72.9,1.08-1.2,2.95-.36,6.25-.57,9.36-.66.06-1.32.09-1.98.08-.17-4.62-.03-9.26-.08-13.89Z"/>
    <g>
      <g>
        <path class="cls-17" d="m20.94,19.54c3.37.07,6.64-.73,9.87-1.63.09.03.18.06.26.09.49.58,1.21.96,2.03.96,1.43,0,2.59-1.13,2.66-2.54.03-.05.06-.1.1-.15,3.98-1.49,7.99-2.93,11.82-4.8.88-.36,1.74-.93,2.72-.98,1.6.53,3.05,1.39,4.53,2.17.8-.7,1.54-1.46,2.27-2.23-1.13-.67-2.26-1.35-3.38-2.03,2.61-1.39,4.85-3.31,7.09-5.21,2.8-.16,5.6.28,8.39.51-2.64,2.23-5.37,4.34-7.9,6.69.77.69,1.5,1.43,2.24,2.17,3.23-2.73,6.37-5.65,10.03-7.79,2.6-.12,5.11,1.2,7.6,1.9.03.54.08,1.08.14,1.61.02-1.6.26-3.23,1.35-4.46C73.56.54,63.62-.79,53.9.46c-14.34,1.71-27.96,8.72-37.7,19.39.72.73,1.46,1.47,2.19,2.19.84-.84,1.69-1.67,2.54-2.5ZM58.44,3.34c-1.82,1.79-4.11,2.97-6.25,4.31-2.46-.83-4.99-1.47-7.54-1.94,4.44-1.47,9.11-2.31,13.79-2.38Zm-22.44,5.72c3.83-.62,8.06-.67,11.72.79-3.74,1.77-7.58,3.35-11.5,4.7-.37.15-.72.14-1.07.06-.49-.6-1.22-.98-2.05-.98-1.45,0-2.63,1.16-2.66,2.6-.07.09-.13.19-.2.27-2.45.77-4.98,1.36-7.55,1.52,3.87-3.71,8.45-6.7,13.31-8.96Z"/>
        <path class="cls-17" d="m118.56,38.73c-1.08,1.23-2.67,1.67-4.24,1.77-.03,3.42-.7,6.84-2.07,9.98-.43.9-.74,1.97-1.6,2.57-1.07-3.93-1.82-7.96-3.24-11.8,1.24-1.09,2.5-2.16,3.78-3.22-.11-.37-.33-1.12-.44-1.49-1.28,1.02-2.55,2.06-3.79,3.13-.8-1.92-1.6-3.85-2.37-5.78,1.63-2.02,2.7-4.41,3.12-6.98,1.94,1.61,3.33,3.74,4.37,6.03.92-.57,1.9-1.03,2.93-1.38-5.58-10.32-14.41-18.76-24.71-24.31-.09-.53-.19-1.05-.29-1.57,0,1.2.2,2.52-.49,3.59-.69,1.04-1.8,1.66-2.77,2.41,1.74,2.13,3.49,4.26,5.08,6.51-2.43-.25-4.89-.29-7.3-.68-.37-.09-.7-.28-1.01-.51-.47-.75-1.3-1.26-2.26-1.26-1.11,0-2.07.69-2.47,1.66-.51.3-1.07.49-1.72.45-3.72.15-7.33,1.15-11.02,1.54-1.01-.84-1.7-1.97-2.49-3-.75.73-1.5,1.46-2.24,2.19.33.44.99,1.31,1.33,1.75-2.87,1-5.78,1.87-8.63,2.91,1.21-1.54,2.46-3.06,3.71-4.59-.77-.64-1.54-1.29-2.31-1.94-2.43,2.46-4.43,5.3-6.52,8.06-.68.96-1.79,1.43-2.81,1.93-3.85,1.79-7.55,3.89-11.1,6.2-1.4.88-2.68,2-4.22,2.64-4.94-1.89-9.51-5.2-12.35-9.73-.76.75-1.52,1.49-2.34,2.18,2.89,4.4,7.29,7.48,11.9,9.88-4.58,3.59-8.76,7.67-12.53,12.1-1.35-7.1-1.41-14.35-.93-21.54-1.4-.24-2.76-.76-3.76-1.81-3.41,5.31-6.3,10.98-8.08,17.05-4.26,13.85-3.36,29.22,2.57,42.45.88-.54,1.75-1.09,2.61-1.65-2.64-6.21-1.6-13.28.55-19.48.08,0,.16.03.25.03,1.4,0,2.53-1.08,2.65-2.45.06-.09.12-.17.18-.26,1.23-.29,2.48-.6,3.75-.65,1.01,1.59,1.53,3.43,2.37,5.11,2.05,4.26,4.56,8.31,7.56,11.96.83-.59,1.66-1.18,2.51-1.73-3.73-4.95-7.08-10.28-9.09-16.17,4.42-.8,8.88-1.28,13.36-1.63-1.59,5.78-3.11,11.6-3.84,17.55,1.03.08,2.06.2,3.07.38.89-6.12,2.34-12.14,4.14-18.05,5.6-.18,11.22-.16,16.8.46.23,1.24,1.31,2.19,2.62,2.19,1.08,0,2-.65,2.43-1.57.09-.05.17-.1.26-.15,4.98.5,9.94,1.24,14.85,2.19.02,6.64-.68,13.24-1.36,19.84,2.12.65,4.4,1.8,4.99,4.14,3.56-1.72,6.99-3.68,10.44-5.63-.54,4.42-1.01,8.85-1.3,13.3-4.35-.2-8.7-.14-13.05.16.11-.9.21-1.8.32-2.71-.98-.24-1.97-.44-2.94-.72-.18,1.27-.43,2.53-.67,3.79-4.29.54-8.52,1.4-12.74,2.36-1.63.42-3.09-.58-4.52-1.19,5.63-1.82,11.25-3.64,16.77-5.79-.53-.93-.95-1.92-1.34-2.91-6.46,2.56-13.05,4.85-19.83,6.38-4.89-2.88-9.46-6.26-13.67-10.07-.78.65-1.57,1.31-2.38,1.93,3.42,3.5,7.45,6.3,11.45,9.09-4.07.73-8.18,1.26-12.32,1.27-.05-3.36-.1-6.73.2-10.07-1.12-.01-2.23-.11-3.31-.34.13,3.48-.12,6.96-.01,10.44-5.01-.31-10.05-1.39-14.37-4.04-1.43,1.47-3.45,2.07-5.45,1.6.95.18,2.01.33,2.45,1.33,10.1,16.16,28.19,26.85,47.17,28.24.08-1.08.21-2.15.4-3.22-8.64-.47-17.06-3.23-24.6-7.41,1.15-2.04,2.52-4.01,4.45-5.38.34-.31.73-.44,1.14-.49.38.2.8.33,1.25.33,1.46,0,2.65-1.18,2.67-2.63.06-.16.11-.32.17-.47,3.15-1.6,6.43-3.09,9.89-3.85,4.58,1.72,9.08,3.74,13.86,4.92-1.05,4.38-2.74,8.59-4.55,12.7.98.37,1.94.8,2.86,1.3,1.98-4.25,3.38-8.73,4.89-13.16,5.42,1.52,11.02,2.17,16.57,2.97.29,1.82.75,3.61.95,5.44-6.65,3.61-14.26,5.34-21.79,5.84.25,1.03.39,2.08.48,3.13,11.97-.69,23.64-5.16,33.18-12.39-1.25-1.25-1.84-2.95-1.71-4.71-3.31-.05-6.61-.2-9.91-.36-.56-3.2-.5-6.45-.46-9.69,1.87.25,3.76.39,5.59.84.34.1.63.31.89.55.29,1.16,1.33,2.02,2.58,2.02.93,0,1.74-.48,2.22-1.2,0,0,.01,0,.02,0,2.24.82,4.38,1.87,6.39,3.15-.32.38-.98,1.12-1.31,1.5.75.71,1.51,1.41,2.21,2.17,10.44-10.58,16.84-25.06,17.56-39.92.6-8.8-1.17-17.59-4.14-25.84Zm-107.56-6.2c.04,7.03.37,14.08,1.83,20.98-1.36,1.94-2.57,3.97-3.68,6.06-.15.03-.28.07-.42.12-.03,0-.06,0-.1,0-1.38,0-2.51,1.06-2.64,2.41-.03.04-.06.07-.08.11-.88.3-1.81.4-2.71.58-.21-10.51,2.31-21.24,7.81-30.25Zm-6.24,42.38c-.83-3.45-1.34-6.98-1.53-10.52,1.02-.3,2.05-.56,3.1-.71.16.28.37.52.62.73-1.1,3.42-1.88,6.92-2.2,10.5Zm6-14.16c-.09-.12-.2-.24-.31-.35.81-1.7,1.67-3.41,2.99-4.79.5,1.47.9,2.98,1.17,4.52-1.27.29-2.55.55-3.85.62Zm3.91,35.3c3.93,1.73,8.22,2.33,12.47,2.6.43,3.63.72,7.29,1.57,10.85-5.44-3.57-10.27-8.15-14.04-13.46Zm27.41,5.67c-.25.14-.5.18-.75.17-.48-.48-1.15-.78-1.89-.78-1.47,0-2.67,1.2-2.67,2.67,0,.3.06.58.15.85-.01.04-.03.08-.04.12-1.73,1.57-3.45,3.16-4.93,4.99-.75-3.68-1.43-7.4-1.53-11.17,5.41.05,10.74-.9,16.02-1.91,1.3.34,2.42,1.11,3.58,1.75-2.66,1.08-5.37,2.05-7.95,3.31Zm24.86-.27c-3.23-1.06-6.6-1.86-9.62-3.48,3.6-.91,7.28-1.5,10.96-2.01-.38,1.84-.8,3.68-1.34,5.49Zm3.22.88c.25-2.31.85-4.55,1.49-6.77,4.45-.25,8.91-.32,13.37-.17-.09,3.16.11,6.33.4,9.48-5.15-.39-10.22-1.44-15.27-2.54Zm24.94,6.39c-2.01,1.79-4.44,2.98-6.74,4.35-.49-1.58-.84-3.2-1.14-4.82,2.63.14,5.25.37,7.88.47Zm8.3-78.55c-.13.02-.4.06-.54.09-1.56-3-3.21-5.95-4.94-8.86,2.19.94,4.48,1.76,6.4,3.2.46,1.89-.03,3.89-.93,5.57Zm-13.07-19.28c4.06,2.32,7.82,5.15,11.24,8.34.91.82,1.5,1.9,2.08,2.96-2.37-1.08-4.94-1.78-7.19-3.04-2.01-2.77-4.11-5.49-6.13-8.26Zm-18.86,36.3c.57,4.49.77,9.02.76,13.55-4.91-1.09-9.92-1.58-14.89-2.3-.02-.02-.03-.05-.05-.07-.31-1.14-1.34-1.98-2.57-1.98-.99,0-1.85.55-2.31,1.35-.4.22-.82.33-1.34.18-5.04-.28-10.08-.62-15.13-.44,1.19-4.37,3.08-8.51,4.86-12.66-1.02-.2-2-.64-2.79-1.31-2.26,4.6-3.93,9.44-5.66,14.26-4.88.06-9.66,1.08-14.5,1.51-.77-2.46-1.53-4.93-1.98-7.48,3.23-3.88,6.69-7.58,10.6-10.78,1.04-.79,1.93-1.9,3.17-2.32,2.4.79,4.7,1.88,7.16,2.5,0-1.04.1-2.1.57-3.04-1.64-.54-3.27-1.12-4.86-1.81,4.4-3.09,9.03-5.88,13.9-8.17-1.46,2.64-3.15,5.16-4.63,7.8.99.36,1.98.82,2.75,1.56,2.17-3.83,4.49-7.59,7.08-11.16.63-1.01,1.84-1.31,2.89-1.74,3-1.05,5.99-2.21,9.13-2.85,3.1,5.29,5.28,11.12,6.42,17.15.99-.41,2.06-.62,3.14-.56-1.36-6.07-3.31-12.05-6.42-17.47,3.92-.91,7.92-1.5,11.93-1.79.31,1.12,1.34,1.96,2.56,1.96s2.18-.78,2.53-1.85c.06-.06.13-.12.19-.18,3.07.12,6.22.25,9.17,1.15,3.05,4,5.5,8.48,7.57,13.07-7.03,5.08-15.78,6.85-24.23,7.92l-.34-.47c.47,1.11.62,2.37.34,3.55,8.9-.98,18.1-2.89,25.56-8.1.75,2.02,2.12,4.03,2.06,6.22-2.34,2.73-4.68,5.47-6.6,8.53-.17.36-.42.6-.72.77-.19-.04-.39-.07-.6-.07-1.47,0-2.67,1.2-2.67,2.67,0,.69.27,1.32.71,1.8-.03.49-.14.96-.43,1.4-1.34,2.67-2.52,5.41-3.49,8.24-4.93-1.64-9.85-3.34-14.96-4.37-.26-4.92-.2-9.85-.87-14.74-1.08.34-2.21.46-3.34.41l.32.16Zm3.45,36.16c-.53-.51-1.45-1.08-.99-1.97.86-6.1,1.28-12.27,1.29-18.43,4.99.86,9.83,2.46,14.53,4.3-.99,2.86-1.6,5.84-2.48,8.74-3.74,3-8.3,4.8-12.35,7.36Zm34.39-6.44c-2.2-1.53-4.27-3.23-6.55-4.64-.23.28-.67.83-.89,1.1,2.54,1.75,5.04,3.58,7.42,5.55-.41,6.99-1.78,13.97-4.38,20.5-2.11-1.26-4.33-2.31-6.62-3.17,0-.02,0-.03,0-.04,0-1.47-1.2-2.67-2.67-2.67-.96,0-1.79.51-2.26,1.27-.05.03-.09.06-.14.09-2.23-.35-4.47-.65-6.71-.95.17-4.42.63-8.83,1.35-13.19.13-.61.19-1.36.81-1.69,2.5-1.64,5.01-3.28,7.4-5.09-.6-.89-1.21-1.77-1.83-2.64-1.66,1.2-3.31,2.41-4.99,3.58.31-2.39,1.1-4.67,1.77-6.97,1.15.37,2.28.8,3.39,1.26.13-.34.4-1,.53-1.34-1.12-.49-2.22-.98-3.33-1.47,1.13-3.25,2.51-6.41,4.07-9.47.17.03.35.05.53.05,1.47,0,2.67-1.2,2.67-2.67,0-.58-.19-1.11-.5-1.54-.01-.29.04-.57.23-.83,1.84-2.86,3.86-5.66,6.34-8.02,1.49,4.46,2.46,9.09,3.19,13.73-2.28,2.99-4.85,5.75-7.58,8.35.77.75,1.59,1.46,2.27,2.31,2.09-1.91,4-4.01,5.93-6.08.59,4.86.93,9.81.56,14.7Zm1.39,15.5c.37-3.53,1.31-6.98,1.51-10.54,1.02.65,1.93,1.46,2.78,2.32-1.24,2.83-2.65,5.59-4.29,8.21Zm4.96-9.83c-1.11-.92-2.45-1.73-3.13-3.03.24-6.58.09-13.19-.89-19.7-.46-1.35.57-2.45,1.19-3.55,2.2-3.46,3.6-7.37,4.4-11.39,3.76,12.27,3.07,25.73-1.57,37.67Z"/>
        <path class="cls-17" d="m67.75,41.7c-7.36.27-14.82-.12-22.03-1.71-.1-.21-.3-.63-.4-.84.34,1.39-.01,2.77-.58,4.04,7.76,1.3,15.64,1.98,23.51,1.69-.2-1.32-.21-2.67.08-3.97-.14.2-.43.59-.58.79Z"/>
      </g>
      <path class="cls-9" d="m72.36,47.35c-2.57,0-4.65-2.09-4.65-4.65s2.09-4.65,4.65-4.65,4.65,2.09,4.65,4.65-2.09,4.65-4.65,4.65Z"/>
      <path class="cls-9" d="m8.79,93.49c-2.57,0-4.65-2.09-4.65-4.65s2.09-4.65,4.65-4.65,4.65,2.09,4.65,4.65-2.09,4.65-4.65,4.65Z"/>
      <path class="cls-5" d="m29.13,85.71c-2.57,0-4.65-2.09-4.65-4.65s2.09-4.65,4.65-4.65,4.65,2.09,4.65,4.65-2.09,4.65-4.65,4.65Z"/>
      <path class="cls-9" d="m71.36,91.33c-2.57,0-4.65-2.09-4.65-4.65s2.09-4.65,4.65-4.65,4.65,2.09,4.65,4.65-2.09,4.65-4.65,4.65Z"/>
      <path class="cls-7" d="m61.41,126.18c-2.57,0-4.65-2.09-4.65-4.65s2.09-4.65,4.65-4.65,4.65,2.09,4.65,4.65-2.09,4.65-4.65,4.65Z"/>
      <path class="cls-16" d="m101.27,111.31c-2.57,0-4.65-2.09-4.65-4.65s2.09-4.65,4.65-4.65,4.65,2.09,4.65,4.65-2.09,4.65-4.65,4.65Z"/>
      <path class="cls-7" d="m98.56,74.81c-2.57,0-4.65-2.09-4.65-4.65s2.09-4.65,4.65-4.65,4.65,2.09,4.65,4.65-2.09,4.65-4.65,4.65Z"/>
      <path class="cls-5" d="m115.13,40.69c-2.57,0-4.65-2.09-4.65-4.65s2.09-4.65,4.65-4.65,4.65,2.09,4.65,4.65-2.09,4.65-4.65,4.65Z"/>
      <path class="cls-16" d="m41.12,45.04c-2.57,0-4.65-2.09-4.65-4.65s2.09-4.65,4.65-4.65,4.65,2.09,4.65,4.65-2.09,4.65-4.65,4.65Z"/>
      <path class="cls-16" d="m85.66,11.81c-2.57,0-4.65-2.09-4.65-4.65s2.09-4.65,4.65-4.65,4.65,2.09,4.65,4.65-2.09,4.65-4.65,4.65Z"/>
      <path class="cls-7" d="m14.12,28.69c-2.57,0-4.65-2.09-4.65-4.65s2.09-4.65,4.65-4.65,4.65,2.09,4.65,4.65-2.09,4.65-4.65,4.65Z"/>
      <path class="cls-5" d="m59.28,19.04c-2.57,0-4.65-2.09-4.65-4.65s2.09-4.65,4.65-4.65,4.65,2.09,4.65,4.65-2.09,4.65-4.65,4.65Z"/>
    </g>
  </g>
</svg>