<?xml version="1.0" encoding="UTF-8"?>
<svg id="Layer_1" data-name="Layer 1" xmlns="http://www.w3.org/2000/svg" viewBox="0 0 2075.64 371.73">
  <defs>
    <style>
      .cls-1, .cls-2 {
        fill: #fff;
        stroke-width: 0px;
      }

      .cls-2 {
        fill-rule: evenodd;
      }
    </style>
  </defs>
  <g>
    <g>
      <polygon class="cls-1" points="536.43 78.61 562.58 78.61 562.58 157.91 577.98 157.91 577.98 78.61 604.14 78.61 604.14 63.79 536.43 63.79 536.43 78.61"/>
      <polygon class="cls-1" points="668.29 103.98 631.26 103.98 631.26 63.79 615.79 63.79 615.79 157.91 631.26 157.91 631.26 118.81 668.29 118.81 668.29 157.91 683.76 157.91 683.76 63.79 668.29 63.79 668.29 103.98"/>
      <polygon class="cls-1" points="712.18 63.79 705.77 63.79 705.77 157.91 712.18 157.91 721.24 157.91 767.53 157.91 767.53 143.08 721.24 143.08 721.24 118.56 760.4 118.56 760.4 103.79 721.24 103.79 721.24 78.61 767.53 78.61 767.53 63.79 721.24 63.79 712.18 63.79"/>
    </g>
    <g>
      <rect class="cls-1" x="819.96" y="63.79" width="15.8" height="94.12"/>
      <polygon class="cls-1" points="912.91 133.44 873.95 63.79 857.12 63.79 857.12 157.84 872.12 157.84 872.12 89.25 910.96 157.84 927.92 157.84 927.92 63.79 912.91 63.79 912.91 133.44"/>
      <polygon class="cls-1" points="942.17 78.61 968.32 78.61 968.32 157.91 983.73 157.91 983.73 78.61 1009.89 78.61 1009.89 63.79 942.17 63.79 942.17 78.61"/>
      <rect class="cls-1" x="1020.89" y="63.79" width="15.8" height="94.12"/>
      <path class="cls-1" d="m1083.04,63.79l-35.34,94.12h16.64l6.2-17.87h36.27l6.2,17.87h16.64l-35.34-94.12h-11.27Zm-7.36,61.43l12.99-37.41,12.99,37.41h-25.98Z"/>
      <polygon class="cls-1" points="1127.05 78.61 1153.2 78.61 1153.2 157.91 1168.61 157.91 1168.61 78.61 1194.76 78.61 1194.76 63.79 1127.05 63.79 1127.05 78.61"/>
      <rect class="cls-1" x="1205.77" y="63.79" width="15.8" height="94.12"/>
      <polygon class="cls-1" points="1273.42 132.08 1252.12 63.79 1235.81 63.79 1266.81 157.91 1266.81 157.91 1280.02 157.91 1311.03 63.79 1294.72 63.79 1273.42 132.08"/>
      <polygon class="cls-1" points="1330.38 63.79 1323.97 63.79 1323.97 157.91 1330.38 157.91 1339.44 157.91 1385.72 157.91 1385.72 143.08 1339.44 143.08 1339.44 118.56 1378.6 118.56 1378.6 103.79 1339.44 103.79 1339.44 78.61 1385.72 78.61 1385.72 63.79 1339.44 63.79 1330.38 63.79"/>
    </g>
    <g>
      <g>
        <path class="cls-1" d="m571.77,212.83l-35.34,94.12h16.64l6.2-17.87h36.27l6.2,17.87h16.64l-35.34-94.12h-11.27Zm-7.36,61.43l12.99-37.41,12.99,37.41h-25.98Z"/>
        <path class="cls-1" d="m659.16,255.32v14.83h16.7v2.84c0,6.08-1.61,10.83-4.83,14.24-3.21,3.41-7.41,5.11-12.85,5.11s-9.81-1.6-13.11-4.79c-3.3-3.2-4.95-7.45-4.95-12.76v-27.77c0-5.86,1.61-10.59,4.83-14.17,3.21-3.58,7.5-5.37,12.85-5.37,3.58,0,6.96,1.07,10.13,3.2s5.29,5.2,6.37,9.16h16.7c-1.08-5.61-3.18-10.51-6.31-14.7-3.14-4.18-6.99-7.44-11.59-9.77-4.6-2.33-9.7-3.5-15.31-3.5-6.78,0-12.67,1.46-17.67,4.37-5,2.91-8.9,7.01-11.71,12.27-2.8,5.26-4.21,11.43-4.21,18.51v27.77c0,6.65,1.42,12.45,4.24,17.44,2.82,4.98,6.79,8.85,11.88,11.58,5.1,2.73,11.09,4.11,17.87,4.11s12.68-1.46,17.7-4.37c5.02-2.91,8.93-7.02,11.71-12.3,2.78-5.28,4.17-11.46,4.17-18.54v-17.41h-32.63v.02Z"/>
        <path class="cls-1" d="m734.25,212.83l-35.34,94.12h16.64l6.2-17.87h36.27l6.2,17.87h16.64l-35.34-94.12h-11.27Zm-7.36,61.43l12.99-37.41,12.99,37.41h-25.98Z"/>
        <rect class="cls-1" x="793.15" y="212.83" width="15.8" height="94.12"/>
        <polygon class="cls-1" points="886.11 282.49 847.15 212.83 830.31 212.83 830.31 306.89 845.32 306.89 845.32 238.3 884.16 306.89 901.12 306.89 901.12 212.83 886.11 212.83 886.11 282.49"/>
        <polygon class="cls-1" points="952.08 307.92 952.07 307.92 952.07 307.92 952.08 307.92"/>
        <path class="cls-1" d="m977.69,259.52c-2.89-1.85-6.09-3.28-9.61-4.27-3.51-.99-7.04-1.84-10.58-2.53-3.58-.73-6.92-1.51-10-2.33-3.08-.83-5.59-2.08-7.51-3.79-1.92-1.7-2.88-4.19-2.88-7.47v-.07c0-3.98,1.63-7.05,4.89-9.23s7.87-3.27,13.83-3.27c3.58,0,7.25.65,11,1.97,3.76,1.32,7.44,3.29,11.07,5.93l7.51-12.75c-4.58-3.24-9.39-5.68-14.44-7.34-5.04-1.67-10.1-2.49-15.14-2.49-10.83,0-19.21,2.45-25.15,7.38-5.94,4.91-8.9,11.86-8.9,20.84v.07c0,5.57.94,10.02,2.81,13.37s4.36,5.92,7.44,7.7c3.08,1.79,6.47,3.11,10.17,3.94,3.69.84,7.32,1.55,10.91,2.1,3.37.56,6.48,1.24,9.33,2.04,2.85.81,5.14,2.04,6.9,3.73s2.63,4.11,2.63,7.26v.07c0,4.1-1.73,7.27-5.21,9.51s-8.37,3.37-14.66,3.37c-5.04,0-9.83-.78-14.34-2.36-4.51-1.58-8.57-3.9-12.2-6.96l-8.23,12.37c3.06,2.55,6.41,4.68,10.03,6.41,3.62,1.72,7.52,3.03,11.68,3.91,4.16.88,8.5,1.33,13.03,1.33,11.17,0,19.84-2.42,25.98-7.28,6.16-4.85,9.23-11.72,9.23-20.61v-.13c0-5.22-.88-9.46-2.63-12.71-1.75-3.26-4.07-5.82-6.96-7.67Z"/>
        <polygon class="cls-1" points="991.82 227.66 1017.97 227.66 1017.97 306.95 1033.38 306.95 1033.38 227.66 1059.54 227.66 1059.54 212.83 991.82 212.83 991.82 227.66"/>
      </g>
      <g>
        <rect class="cls-1" x="1103.55" y="212.83" width="15.8" height="94.12"/>
        <polygon class="cls-1" points="1156.19 212.83 1140.71 212.83 1140.71 306.95 1147.96 306.95 1156.19 306.95 1202.47 306.95 1202.47 292.12 1156.19 292.12 1156.19 212.83"/>
        <polygon class="cls-1" points="1232.18 212.83 1216.71 212.83 1216.71 306.95 1223.95 306.95 1232.18 306.95 1278.46 306.95 1278.46 292.12 1232.18 292.12 1232.18 212.83"/>
        <rect class="cls-1" x="1292.06" y="212.83" width="15.8" height="94.12"/>
        <path class="cls-1" d="m1347.88,232.49c3.13-3.56,7.39-5.34,12.78-5.34,2.67,0,5.16.6,7.47,1.81,2.31,1.21,4.31,2.92,5.99,5.14,1.69,2.22,2.92,4.89,3.69,8h15.93c-1.12-6.25-3.2-11.64-6.24-16.15-3.05-4.51-6.85-7.99-11.43-10.43-4.58-2.44-9.71-3.66-15.41-3.66-6.86,0-12.79,1.43-17.8,4.27-5.01,2.84-8.87,6.9-11.56,12.14s-4.04,11.49-4.04,18.74v25.83c0,7.2,1.34,13.44,4.04,18.71,2.7,5.26,6.56,9.32,11.56,12.14,5,2.82,10.94,4.24,17.8,4.24v.02c5.69,0,10.81-1.22,15.36-3.66s8.36-5.92,11.4-10.43c3.04-4.5,5.14-9.89,6.31-16.15h-15.93c-1.12,4.79-3.26,8.48-6.41,11.07-3.15,2.58-6.73,3.88-10.74,3.88-5.39,0-9.65-1.76-12.78-5.31-3.14-3.54-4.7-8.38-4.7-14.5v-25.83c0-6.13,1.57-10.97,4.7-14.53Z"/>
        <rect class="cls-1" x="1409.29" y="212.83" width="15.8" height="94.12"/>
        <polygon class="cls-1" points="1438.67 227.66 1464.82 227.66 1464.82 306.95 1480.23 306.95 1480.23 227.66 1506.38 227.66 1506.38 212.83 1438.67 212.83 1438.67 227.66"/>
      </g>
      <g>
        <polygon class="cls-1" points="1557.53 212.83 1551.05 212.83 1551.05 306.95 1566.53 306.95 1566.53 268.44 1604.46 268.44 1604.46 253.68 1566.53 253.68 1566.53 227.66 1611.58 227.66 1611.58 212.83 1566.53 212.83 1557.53 212.83"/>
        <rect class="cls-1" x="1625.82" y="212.83" width="15.8" height="94.12"/>
        <polygon class="cls-1" points="1718.77 282.49 1679.81 212.83 1662.98 212.83 1662.98 306.89 1677.98 306.89 1677.98 238.3 1716.82 306.89 1733.79 306.89 1733.79 212.83 1718.77 212.83 1718.77 282.49"/>
        <path class="cls-1" d="m1780.79,212.83l-35.34,94.12h16.64l6.2-17.87h36.27l6.2,17.87h16.64l-35.34-94.12h-11.27Zm-7.36,61.43l12.99-37.41,12.99,37.41h-25.98Z"/>
        <polygon class="cls-1" points="1896.13 282.49 1857.17 212.83 1840.34 212.83 1840.34 306.89 1855.34 306.89 1855.34 238.3 1894.18 306.89 1911.15 306.89 1911.15 212.83 1896.13 212.83 1896.13 282.49"/>
        <path class="cls-1" d="m1951.84,232.49c3.13-3.56,7.39-5.34,12.78-5.34,2.67,0,5.16.6,7.47,1.81,2.31,1.21,4.31,2.92,5.99,5.14,1.69,2.22,2.92,4.89,3.69,8h15.93c-1.12-6.25-3.2-11.64-6.24-16.15-3.05-4.51-6.85-7.99-11.43-10.43-4.58-2.44-9.71-3.66-15.41-3.66-6.86,0-12.79,1.43-17.8,4.27-5.01,2.84-8.87,6.9-11.56,12.14-2.69,5.24-4.04,11.49-4.04,18.74v25.83c0,7.2,1.34,13.44,4.04,18.71,2.7,5.26,6.56,9.32,11.56,12.14,5,2.82,10.94,4.24,17.8,4.24v.02c5.69,0,10.81-1.22,15.36-3.66s8.36-5.92,11.4-10.43c3.04-4.5,5.14-9.89,6.31-16.15h-15.93c-1.12,4.79-3.26,8.48-6.41,11.07-3.15,2.58-6.73,3.88-10.74,3.88-5.39,0-9.65-1.76-12.78-5.31-3.14-3.54-4.7-8.38-4.7-14.5v-25.83c0-6.13,1.57-10.97,4.7-14.53Z"/>
        <polygon class="cls-1" points="2075.64 227.66 2075.64 212.83 2029.36 212.83 2020.29 212.83 2013.89 212.83 2013.89 306.95 2020.29 306.95 2029.36 306.95 2075.64 306.95 2075.64 292.12 2029.36 292.12 2029.36 267.6 2068.52 267.6 2068.52 252.84 2029.36 252.84 2029.36 227.66 2075.64 227.66"/>
      </g>
    </g>
  </g>
  <g>
    <g>
      <path class="cls-2" d="m334.66,103.78c-35.21,50.08-80.15,91.62-131.48,122.57-8.73-2.93-17.97-5.08-27.97-5.94-2.06-.18-4.65-.28-7.49-.28-9.26,0-40.75,1.08-76.59,14.3-.85-2.98-1.62-6-2.3-9.05-2.56-11.45-3.9-23.37-3.9-35.6,0-89.99,72.95-162.93,162.94-162.93,2.15,0,4.31.04,6.44.12-80.14,3.25-144.11,69.25-144.11,150.19,0,15.32,2.29,30.1,6.55,44.02,82.52-15.41,158.87-56.14,217.92-117.39h0Z"/>
      <path class="cls-2" d="m267.19,257c-.7-.31-1.41-.63-2.12-.95,35.74-36.4,64.65-79.56,84.75-127.54-11.95,48.34-31.96,93.74-58.75,134.52-10.34-.48-18.28-2.34-22.68-5.36l-.58-.39-.64-.28h.02Z"/>
      <path class="cls-2" d="m410.8,189.78c0,30.88-8.59,59.77-23.52,84.38l-20.72,9.49c25.97-25.87,42.53-61.16,44.11-100.32.08,2.14.13,4.29.13,6.44h0Z"/>
      <path class="cls-2" d="m393.48,0c-6.92,26.42-15.78,52.1-26.41,76.85-3.81,8.88-7.87,17.64-12.13,26.28-26.74,54.06-62.24,103.18-104.92,145.4h0c-2.12-1.12-4.25-2.27-6.41-3.43-8.76-4.7-17.64-9.46-27.02-13.55,52.69-35.63,97.59-81.99,131.57-136.25,4.84-7.71,9.44-15.59,13.83-23.61,12.41-22.74,22.98-46.7,31.51-71.69h-.02Z"/>
      <path class="cls-2" d="m357.18,67.29c-24.86-21.79-57.43-35.01-93.09-35.01-78.02,0-141.27,63.25-141.27,141.27,0,1.87.04,3.73.11,5.59,2.81-69.49,60.04-124.96,130.21-124.96,35.13,0,67.01,13.9,90.45,36.5,4.49-7.22,8.77-14.56,12.84-22.02l.75-1.38h0Z"/>
      <path class="cls-2" d="m405.36,173.56c0,41.68-18.06,79.15-46.77,105.01,1.78-5.52,2.16-11.47,1.09-17.67l-.19-1.07h0c15.09-21.28,23.96-47.27,23.96-75.33s-8.99-54.41-24.27-75.75c.47-.94.94-1.88,1.41-2.82,3.9-7.88,7.6-15.84,11.12-23.9,20.99,24.66,33.65,56.61,33.65,91.53h0Z"/>
    </g>
    <path class="cls-1" d="m478.91,286.11l-168.23,81.4c-8.69,2.95-17.06,4.22-25.23,4.22-23.89,0-46.02-10.83-69.07-22.04-13.44-6.53-27.2-13.2-41.82-17.91-2.27-.73-4.68-1.54-7.22-2.38-22.92-7.68-56.39-19.15-95.67-19.15-22.3,0-46.49,3.69-71.67,13.89,20.78-45.05,58.16-69.52,93.34-82.53,30.58-11.32,59.49-13.98,74.37-13.98,2.81,0,5.12.1,6.85.25,6.92.6,13.51,1.88,19.83,3.63,5.04,1.4,9.92,3.11,14.66,5.02,12.43,5.01,23.97,11.43,35.33,17.49,5.03,2.68,10.02,5.29,15.04,7.66,1.57.75,3.15,1.47,4.73,2.17,5.27,3.62,13.11,5.58,22.09,6.37,3.31.29,6.78.43,10.33.43,20.22,0,43.19-4.34,55.73-8.46.37,2.18.53,4.29.47,6.32-.52,19.54-20.26,31.98-46.09,34.85h0c-3.81.43-7.75.64-11.78.64-9.52,0-19.54-1.2-29.51-3.72,5.82,4.29,16.66,6.99,29.76,7.62h0c1.96.1,3.95.14,6,.14,2.23,0,4.5-.06,6.82-.17h0c12.24-.61,25.5-2.87,38-7.09,1.85-.62,3.67-1.28,5.47-1.99l27.88-12.78,75.74-34.71c2.41-.76,4.88-1.12,7.33-1.12,7.63,0,14.98,3.58,19.25,9.84,5.65,8.25,4.5,19.02-2.77,26.09h.04Z"/>
  </g>
</svg>