<?xml version="1.0" encoding="UTF-8"?>
<svg id="Layer_1" data-name="Layer 1" xmlns="http://www.w3.org/2000/svg" viewBox="0 0 30 30">
  <defs>
    <style>
      .cls-1 {
        fill: #31b9c8;
      }
    </style>
  </defs>
  <path class="cls-1" d="m22.94,5.36c-.97,0-1.76.79-1.76,1.76s.79,1.76,1.76,1.76,1.76-.79,1.76-1.76-.79-1.76-1.76-1.76Z"/>
  <path class="cls-1" d="m15.12,7.61c-4.07,0-7.39,3.31-7.39,7.39s3.31,7.39,7.39,7.39,7.39-3.31,7.39-7.39-3.31-7.39-7.39-7.39Zm0,12.12c-2.61,0-4.73-2.12-4.73-4.73s2.12-4.73,4.73-4.73,4.73,2.12,4.73,4.73-2.12,4.73-4.73,4.73Z"/>
  <path class="cls-1" d="m20.99,30h-11.98C4.04,30,0,25.96,0,20.99v-11.98C0,4.04,4.04,0,9.01,0h11.98C25.96,0,30,4.04,30,9.01v11.98c0,4.97-4.04,9.01-9.01,9.01ZM9.01,2.82c-3.41,0-6.19,2.78-6.19,6.19v11.98c0,3.41,2.78,6.19,6.19,6.19h11.98c3.41,0,6.19-2.78,6.19-6.19v-11.98c0-3.41-2.78-6.19-6.19-6.19h-11.98Z"/>
</svg>