<?xml version="1.0" encoding="UTF-8"?>
<svg id="Layer_1" data-name="Layer 1" xmlns="http://www.w3.org/2000/svg" viewBox="0 0 30 30">
  <defs>
    <style>
      .cls-1 {
        fill: #31b9c8;
      }
    </style>
  </defs>
  <path class="cls-1" d="m15,0C6.73,0,0,6.73,0,15s6.73,15,15,15,15-6.73,15-15S23.27,0,15,0Zm11.7,13.41h-4.56c-.16-3.29-.83-6.55-1.97-9.03,3.48,1.7,6,5.05,6.54,9.03Zm-11.7,13.41c-1.47,0-3.63-4.02-3.96-10.23h7.91c-.32,6.21-2.49,10.23-3.96,10.23Zm-3.96-13.41c.32-6.21,2.49-10.23,3.96-10.23s3.63,4.02,3.96,10.23h-7.91Zm-1.21-9.03c-1.14,2.48-1.81,5.74-1.97,9.03H3.3c.54-3.98,3.06-7.33,6.54-9.03Zm-6.54,12.21h4.56c.16,3.29.83,6.55,1.97,9.03-3.48-1.7-6-5.05-6.54-9.03Zm16.87,9.03c1.14-2.48,1.81-5.74,1.97-9.03h4.56c-.54,3.98-3.06,7.33-6.54,9.03Z"/>
</svg>