<?xml version="1.0" encoding="utf-8"?>
<!-- Generator: Adobe Illustrator 27.4.0, SVG Export Plug-In . SVG Version: 6.00 Build 0)  -->
<svg version="1.1" id="Layer_1" xmlns="http://www.w3.org/2000/svg" xmlns:xlink="http://www.w3.org/1999/xlink" x="0px" y="0px"
	 viewBox="0 0 512 512" style="enable-background:new 0 0 512 512;" xml:space="preserve">
<style type="text/css">
	.st0{fill:#FFFFFF;}
</style>
<g id="_40_Airport_Reception_Airport_Receptionist_Hotel">
	<g>
		<path class="st0" d="M486,213.7h-53.9c6.6-42-7.8-68.9-21.9-84.4c-16.7-18.4-36.4-24.9-37.2-25.2c-5.3-1.7-10.9,1.2-12.6,6.4
			c-1.7,5.2,1.2,10.9,6.4,12.6c0.1,0.1,15.6,5.3,28.6,19.6c16.3,17.9,21.8,41.7,16.4,70.9h-26.2c-4.2-54.9-42.6-100.4-93.9-115
			c8.9-9,14.3-21.4,14.3-35c0-27.6-22.4-50-50-50s-50,22.4-50,50c0,13.6,5.5,26,14.3,35c-51.3,14.7-89.7,60.1-93.9,115H108
			c-12.8-70.2,42.4-89.6,45-90.5c5.2-1.7,8.1-7.3,6.4-12.6c-1.7-5.2-7.3-8.1-12.6-6.4c-0.8,0.3-20.5,6.8-37.2,25.2
			c-14.1,15.5-28.6,42.3-21.9,84.4H26c-5.5,0-10,4.5-10,10s4.5,10,10,10h30v250c0,5.5,4.5,10,10,10h380c5.5,0,10-4.5,10-10v-250h30
			c5.5,0,10-4.5,10-10S491.5,213.7,486,213.7z M226,63.7c0-16.5,13.5-30,30-30s30,13.5,30,30s-13.5,30-30,30S226,80.2,226,63.7z
			 M256,113.7c57.3,0,104.5,44,109.5,100H326v-20c0-5.5-4.5-10-10-10s-10,4.5-10,10v20H206v-20c0-5.5-4.5-10-10-10s-10,4.5-10,10v20
			h-39.6C151.5,157.7,198.7,113.7,256,113.7z M436,473.7H76v-240h360V473.7z"/>
		<path class="st0" d="M256,263.7c-49.6,0-90,40.4-90,90s40.4,90,90,90s90-40.4,90-90S305.6,263.7,256,263.7z M325.3,343.7h-19.6
			c-1-18-4.9-34.8-11.2-48.4C310.8,306,322.4,323.4,325.3,343.7z M246,288.3v55.3h-19.7C228.1,317.7,236.5,297.1,246,288.3z
			 M246,363.7V419c-9.5-8.8-17.9-29.3-19.7-55.3H246z M266,419v-55.3h19.7C283.9,389.6,275.5,410.2,266,419z M266,343.7v-55.3
			c9.5,8.8,17.9,29.3,19.7,55.3H266z M217.5,295.2c-6.3,13.6-10.2,30.5-11.2,48.4h-19.6C189.6,323.4,201.2,306,217.5,295.2z
			 M186.7,363.7h19.6c1.1,18,4.9,34.8,11.2,48.4C201.2,401.3,189.6,383.9,186.7,363.7z M294.5,412.1c6.3-13.6,10.2-30.5,11.2-48.4
			h19.6C322.4,383.9,310.8,401.3,294.5,412.1z"/>
	</g>
</g>
</svg>
