<?xml version="1.0" encoding="utf-8"?>
<!-- Generator: Adobe Illustrator 27.9.0, SVG Export Plug-In . SVG Version: 6.00 Build 0)  -->
<svg version="1.1" id="Layer_1" xmlns="http://www.w3.org/2000/svg" xmlns:xlink="http://www.w3.org/1999/xlink" x="0px" y="0px"
	 viewBox="0 0 2075.6 371.7" style="enable-background:new 0 0 2075.6 371.7;" xml:space="preserve">
<style type="text/css">
	.st0{fill:#FFFFFF;}
	.st1{fill-rule:evenodd;clip-rule:evenodd;fill:#FFFFFF;}
</style>
<g>
	<path class="st0" d="M493.3,722.4v-13.6h62.1v13.6H493.3z M517.3,795.2v-79.3h14.1v79.3H517.3L517.3,795.2z"/>
	<path class="st0" d="M566.2,795.2v-86.4h14.2v86.4H566.2z M573.7,759.3v-13.6h49.1v13.6H573.7z M614.4,795.2v-86.4h14.2v86.4H614.4
		z"/>
	<path class="st0" d="M648.8,795.2v-86.4H663v86.4H648.8z M654.7,722.4v-13.6h50.8v13.6H654.7z M654.7,759v-13.6h44.3V759H654.7z
		 M654.7,795.2v-13.6h50.8v13.6H654.7z"/>
	<path class="st0" d="M768.1,708.8v86.4h-14.5v-86.4H768.1z"/>
	<path class="st0" d="M787.7,795.1v-86.3h15.5l37.2,66.5l-1.4,1.5v-68h13.8v86.3h-15.6L800,729.6l1.4-1.5v67L787.7,795.1
		L787.7,795.1z"/>
	<path class="st0" d="M865.8,722.4v-13.6h62.2v13.6H865.8z M889.8,795.2v-79.3h14.1v79.3H889.8L889.8,795.2z"/>
	<path class="st0" d="M952.5,708.8v86.4H938v-86.4H952.5z"/>
	<path class="st0" d="M962.6,795.2l32.4-86.4h10.3l32.4,86.4h-15.3l-22.3-64.4l-22.3,64.4H962.6L962.6,795.2z M977.9,778.8v-13.6
		h45.5v13.6H977.9z"/>
	<path class="st0" d="M1035.4,722.4v-13.6h62.2v13.6H1035.4z M1059.4,795.2v-79.3h14.1v79.3H1059.4L1059.4,795.2z"/>
	<path class="st0" d="M1122.2,708.8v86.4h-14.5v-86.4H1122.2z"/>
	<path class="st0" d="M1163.7,795.2l-28.5-86.4h15l19.6,62.7l19.6-62.7h15l-28.5,86.4H1163.7L1163.7,795.2z"/>
	<path class="st0" d="M1216.2,795.2v-86.4h14.2v86.4H1216.2z M1222.1,722.4v-13.6h50.8v13.6H1222.1z M1222.1,759v-13.6h44.3V759
		H1222.1z M1222.1,795.2v-13.6h50.8v13.6H1222.1z"/>
	<path class="st0" d="M1313.3,795.2l32.4-86.4h10.3l32.4,86.4h-15.3l-22.3-64.4l-22.3,64.4H1313.3L1313.3,795.2z M1328.5,778.8
		v-13.6h45.4v13.6H1328.5z"/>
	<path class="st0" d="M1425.9,747.8h29.9v16c0,6.5-1.3,12.2-3.8,17c-2.6,4.9-6.1,8.6-10.8,11.3c-4.6,2.7-10,4-16.2,4
		s-11.7-1.3-16.4-3.8c-4.7-2.5-8.3-6.1-10.9-10.6c-2.6-4.6-3.9-9.9-3.9-16v-25.5c0-6.5,1.3-12.2,3.9-17c2.6-4.8,6.2-8.6,10.8-11.3
		c4.6-2.7,10-4,16.2-4c5.2,0,9.8,1.1,14.1,3.2c4.2,2.1,7.8,5.1,10.6,9c2.9,3.8,4.8,8.3,5.8,13.5h-15.3c-1-3.6-2.9-6.5-5.8-8.4
		c-2.9-2-6-2.9-9.3-2.9c-4.9,0-8.8,1.6-11.8,4.9c-2.9,3.3-4.4,7.6-4.4,13v25.5c0,4.9,1.5,8.8,4.5,11.7c3,2.9,7,4.4,12,4.4
		s8.8-1.6,11.8-4.7c2.9-3.1,4.4-7.5,4.4-13.1v-2.6h-15.3L1425.9,747.8L1425.9,747.8z"/>
	<path class="st0" d="M1462.4,795.2l32.4-86.4h10.3l32.4,86.4h-15.3l-22.3-64.4l-22.3,64.4H1462.4L1462.4,795.2z M1477.7,778.8
		v-13.6h45.4v13.6H1477.7z"/>
	<path class="st0" d="M1563.4,708.8v86.4h-14.5v-86.4H1563.4z"/>
	<path class="st0" d="M1583,795.1v-86.3h15.4l37.2,66.5l-1.4,1.5v-68h13.8v86.3h-15.6l-37.1-65.5l1.4-1.5v67L1583,795.1L1583,795.1z
		"/>
	<path class="st0" d="M1694.8,796.1c-4.2,0-8.2-0.4-12-1.2s-7.4-2-10.7-3.6c-3.3-1.6-6.4-3.5-9.2-5.9l7.6-11.3
		c3.3,2.8,7.1,4.9,11.2,6.4c4.1,1.4,8.5,2.2,13.2,2.2c5.8,0,10.3-1,13.5-3.1s4.8-5,4.8-8.7v-0.1c0-2.9-0.8-5.1-2.4-6.7
		c-1.6-1.6-3.7-2.7-6.3-3.4c-2.6-0.7-5.5-1.4-8.6-1.9c-3.3-0.5-6.6-1.2-10-1.9c-3.4-0.8-6.5-2-9.3-3.6c-2.8-1.6-5.1-4-6.8-7.1
		s-2.6-7.2-2.6-12.3v-0.1c0-8.2,2.7-14.6,8.2-19.1c5.4-4.5,13.1-6.8,23.1-6.8c4.6,0,9.3,0.8,13.9,2.3c4.6,1.5,9.1,3.8,13.2,6.7
		l-6.9,11.7c-3.3-2.4-6.7-4.2-10.2-5.4c-3.4-1.2-6.8-1.8-10.1-1.8c-5.5,0-9.7,1-12.7,3s-4.5,4.8-4.5,8.5v0.1c0,3,0.9,5.3,2.6,6.9
		c1.8,1.6,4.1,2.7,6.9,3.5c2.8,0.8,5.9,1.5,9.2,2.1c3.2,0.6,6.5,1.4,9.7,2.3c3.2,0.9,6.2,2.2,8.8,3.9c2.7,1.7,4.8,4,6.4,7
		c1.6,3,2.4,6.9,2.4,11.7v0.1c0,8.2-2.8,14.5-8.5,18.9C1713,793.8,1705,796.1,1694.8,796.1L1694.8,796.1z"/>
	<path class="st0" d="M1731.3,722.4v-13.6h62.2v13.6H1731.3z M1755.3,795.2v-79.3h14.1v79.3H1755.3L1755.3,795.2z"/>
	<path class="st0" d="M1848.3,708.8v86.4h-14.5v-86.4H1848.3z"/>
	<path class="st0" d="M1867.9,795.2v-86.4h14.2v86.4H1867.9z M1874.6,795.2v-13.6h50v13.6H1874.6z"/>
	<path class="st0" d="M1937.7,795.2v-86.4h14.2v86.4H1937.7z M1944.3,795.2v-13.6h50v13.6H1944.3z"/>
	<path class="st0" d="M2021.3,708.8v86.4h-14.5v-86.4H2021.3z"/>
	<path class="st0" d="M2069.8,796.1c-6.3,0-11.8-1.3-16.3-3.9c-4.6-2.6-8.1-6.3-10.6-11.1c-2.5-4.8-3.7-10.6-3.7-17.2v-23.7
		c0-6.7,1.2-12.4,3.7-17.2s6-8.5,10.6-11.1c4.6-2.6,10-3.9,16.3-3.9c5.2,0,9.9,1.1,14.1,3.4c4.2,2.2,7.7,5.4,10.5,9.6
		c2.8,4.1,4.7,9.1,5.7,14.8h-14.6c-0.7-2.8-1.8-5.3-3.4-7.3c-1.5-2-3.4-3.6-5.5-4.7c-2.1-1.1-4.4-1.7-6.9-1.7
		c-4.9,0-8.9,1.6-11.7,4.9c-2.9,3.3-4.3,7.7-4.3,13.3v23.7c0,5.6,1.4,10.1,4.3,13.3c2.9,3.2,6.8,4.9,11.7,4.9c3.7,0,7-1.2,9.9-3.6
		c2.9-2.4,4.9-5.8,5.9-10.2h14.6c-1.1,5.7-3,10.7-5.8,14.8c-2.8,4.1-6.3,7.3-10.5,9.6S2075,796.1,2069.8,796.1L2069.8,796.1z"/>
	<path class="st0" d="M2128.9,708.8v86.4h-14.5v-86.4H2128.9z"/>
	<path class="st0" d="M2141.4,722.4v-13.6h62.1v13.6H2141.4z M2165.4,795.2v-79.3h14.1v79.3H2165.4L2165.4,795.2z"/>
	<path class="st0" d="M2244.5,795.2v-86.4h14.2v86.4H2244.5z M2250.5,722.4v-13.6h49.6v13.6H2250.5z M2250.5,759.8v-13.5h43.1v13.5
		H2250.5z"/>
	<path class="st0" d="M2327.7,708.8v86.4h-14.5v-86.4H2327.7z"/>
	<path class="st0" d="M2347.3,795.1v-86.3h15.4l37.2,66.5l-1.4,1.5v-68h13.8v86.3h-15.6l-37.1-65.5l1.4-1.5v67L2347.3,795.1
		L2347.3,795.1z"/>
	<path class="st0" d="M2423,795.2l32.4-86.4h10.3l32.4,86.4h-15.3l-22.3-64.4l-22.3,64.4H2423L2423,795.2z M2438.2,778.8v-13.6h45.4
		v13.6H2438.2z"/>
	<path class="st0" d="M2510.1,795.1v-86.3h15.4l37.2,66.5l-1.4,1.5v-68h13.8v86.3h-15.6l-37.1-65.5l1.4-1.5v67L2510.1,795.1
		L2510.1,795.1z"/>
	<path class="st0" d="M2624.1,796.1c-6.3,0-11.8-1.3-16.3-3.9c-4.6-2.6-8.1-6.3-10.6-11.1c-2.5-4.8-3.7-10.6-3.7-17.2v-23.7
		c0-6.7,1.2-12.4,3.7-17.2s6-8.5,10.6-11.1c4.6-2.6,10-3.9,16.3-3.9c5.2,0,9.9,1.1,14.1,3.4c4.2,2.2,7.7,5.4,10.5,9.6
		c2.8,4.1,4.7,9.1,5.7,14.8h-14.6c-0.7-2.8-1.8-5.3-3.4-7.3c-1.5-2-3.4-3.6-5.5-4.7c-2.1-1.1-4.4-1.7-6.9-1.7
		c-4.9,0-8.9,1.6-11.7,4.9c-2.9,3.3-4.3,7.7-4.3,13.3v23.7c0,5.6,1.4,10.1,4.3,13.3c2.9,3.2,6.8,4.9,11.7,4.9c3.7,0,7-1.2,9.9-3.6
		c2.9-2.4,4.9-5.8,5.9-10.2h14.6c-1.1,5.7-3,10.7-5.8,14.8c-2.8,4.1-6.3,7.3-10.5,9.6S2629.4,796.1,2624.1,796.1L2624.1,796.1z"/>
	<path class="st0" d="M2669.4,795.2v-86.4h14.2v86.4H2669.4z M2675.2,722.4v-13.6h50.8v13.6H2675.2z M2675.2,759v-13.6h44.3V759
		H2675.2z M2675.2,795.2v-13.6h50.8v13.6H2675.2z"/>
</g>
<g>
	<g>
		<path class="st1" d="M304.1,669.9c-35.2,50.1-80.1,91.6-131.5,122.6c-8.7-2.9-18-5.1-28-5.9c-2.1-0.2-4.6-0.3-7.5-0.3
			c-9.3,0-40.8,1.1-76.6,14.3c-0.8-3-1.6-6-2.3-9.1c-2.6-11.4-3.9-23.4-3.9-35.6c0-90,73-162.9,162.9-162.9c2.1,0,4.3,0,6.4,0.1
			c-80.1,3.2-144.1,69.2-144.1,150.2c0,15.3,2.3,30.1,6.6,44C168.7,771.9,245.1,731.2,304.1,669.9L304.1,669.9z"/>
		<path class="st1" d="M236.6,823.1c-0.7-0.3-1.4-0.6-2.1-1c35.7-36.4,64.6-79.6,84.8-127.5c-12,48.3-32,93.7-58.8,134.5
			c-10.3-0.5-18.3-2.3-22.7-5.4l-0.6-0.4L236.6,823.1L236.6,823.1z"/>
		<path class="st1" d="M380.2,755.9c0,30.9-8.6,59.8-23.5,84.4l-20.7,9.5c26-25.9,42.5-61.2,44.1-100.3
			C380.2,751.6,380.2,753.7,380.2,755.9L380.2,755.9z"/>
		<path class="st1" d="M362.9,566.1c-6.9,26.4-15.8,52.1-26.4,76.9c-3.8,8.9-7.9,17.6-12.1,26.3c-26.7,54.1-62.2,103.2-104.9,145.4
			l0,0c-2.1-1.1-4.2-2.3-6.4-3.4c-8.8-4.7-17.6-9.5-27-13.5c52.7-35.6,97.6-82,131.6-136.2c4.8-7.7,9.4-15.6,13.8-23.6
			C343.8,615.1,354.4,591.1,362.9,566.1L362.9,566.1z"/>
		<path class="st1" d="M326.6,633.4c-24.9-21.8-57.4-35-93.1-35c-78,0-141.3,63.2-141.3,141.3c0,1.9,0,3.7,0.1,5.6
			c2.8-69.5,60-125,130.2-125c35.1,0,67,13.9,90.4,36.5c4.5-7.2,8.8-14.6,12.8-22C326.1,634.3,326.4,633.9,326.6,633.4L326.6,633.4
			L326.6,633.4z"/>
		<path class="st1" d="M374.8,739.7c0,41.7-18.1,79.2-46.8,105c1.8-5.5,2.2-11.5,1.1-17.7l-0.2-1.1l0,0c15.1-21.3,24-47.3,24-75.3
			s-9-54.4-24.3-75.8c0.5-0.9,0.9-1.9,1.4-2.8c3.9-7.9,7.6-15.8,11.1-23.9C362.1,672.8,374.8,704.8,374.8,739.7L374.8,739.7z"/>
	</g>
	<path class="st0" d="M448.3,852.2l-168.2,81.4c-8.7,3-17.1,4.2-25.2,4.2c-23.9,0-46-10.8-69.1-22c-13.4-6.5-27.2-13.2-41.8-17.9
		c-2.3-0.7-4.7-1.5-7.2-2.4c-22.9-7.7-56.4-19.1-95.7-19.1c-22.3,0-46.5,3.7-71.7,13.9c20.8-45,58.2-69.5,93.3-82.5
		c30.6-11.3,59.5-14,74.4-14c2.8,0,5.1,0.1,6.9,0.2c6.9,0.6,13.5,1.9,19.8,3.6c5,1.4,9.9,3.1,14.7,5c12.4,5,24,11.4,35.3,17.5
		c5,2.7,10,5.3,15,7.7c1.6,0.8,3.1,1.5,4.7,2.2c5.3,3.6,13.1,5.6,22.1,6.4c3.3,0.3,6.8,0.4,10.3,0.4c20.2,0,43.2-4.3,55.7-8.5
		c0.4,2.2,0.5,4.3,0.5,6.3c-0.5,19.5-20.3,32-46.1,34.9l0,0c-3.8,0.4-7.8,0.6-11.8,0.6c-9.5,0-19.5-1.2-29.5-3.7
		c5.8,4.3,16.7,7,29.8,7.6l0,0c2,0.1,4,0.1,6,0.1c2.2,0,4.5-0.1,6.8-0.2l0,0c12.2-0.6,25.5-2.9,38-7.1c1.9-0.6,3.7-1.3,5.5-2
		l27.9-12.8l75.7-34.7c2.4-0.8,4.9-1.1,7.3-1.1c7.6,0,15,3.6,19.2,9.8C456.7,834.4,455.6,845.2,448.3,852.2L448.3,852.2z"/>
</g>
<g>
	<g>
		<g>
			<polygon class="st0" points="536.4,78.6 562.6,78.6 562.6,157.9 578,157.9 578,78.6 604.1,78.6 604.1,63.8 536.4,63.8 			"/>
			<polygon class="st0" points="668.3,104 631.3,104 631.3,63.8 615.8,63.8 615.8,157.9 631.3,157.9 631.3,118.8 668.3,118.8 
				668.3,157.9 683.8,157.9 683.8,63.8 668.3,63.8 			"/>
			<polygon class="st0" points="712.2,63.8 705.8,63.8 705.8,157.9 712.2,157.9 721.2,157.9 767.5,157.9 767.5,143.1 721.2,143.1 
				721.2,118.6 760.4,118.6 760.4,103.8 721.2,103.8 721.2,78.6 767.5,78.6 767.5,63.8 721.2,63.8 			"/>
		</g>
		<g>
			<rect x="820" y="63.8" class="st0" width="15.8" height="94.1"/>
			<polygon class="st0" points="912.9,133.4 873.9,63.8 857.1,63.8 857.1,157.8 872.1,157.8 872.1,89.3 911,157.8 927.9,157.8 
				927.9,63.8 912.9,63.8 			"/>
			<polygon class="st0" points="942.2,78.6 968.3,78.6 968.3,157.9 983.7,157.9 983.7,78.6 1009.9,78.6 1009.9,63.8 942.2,63.8 			
				"/>
			<rect x="1020.9" y="63.8" class="st0" width="15.8" height="94.1"/>
			<path class="st0" d="M1083,63.8l-35.3,94.1h16.6l6.2-17.9h36.3l6.2,17.9h16.6l-35.3-94.1H1083z M1075.7,125.2l13-37.4l13,37.4
				H1075.7z"/>
			<polygon class="st0" points="1127.1,78.6 1153.2,78.6 1153.2,157.9 1168.6,157.9 1168.6,78.6 1194.8,78.6 1194.8,63.8 
				1127.1,63.8 			"/>
			<rect x="1205.8" y="63.8" class="st0" width="15.8" height="94.1"/>
			<polygon class="st0" points="1273.4,132.1 1252.1,63.8 1235.8,63.8 1266.8,157.9 1266.8,157.9 1280,157.9 1311,63.8 1294.7,63.8 
							"/>
			<polygon class="st0" points="1330.4,63.8 1324,63.8 1324,157.9 1330.4,157.9 1339.4,157.9 1385.7,157.9 1385.7,143.1 
				1339.4,143.1 1339.4,118.6 1378.6,118.6 1378.6,103.8 1339.4,103.8 1339.4,78.6 1385.7,78.6 1385.7,63.8 1339.4,63.8 			"/>
		</g>
		<g>
			<g>
				<path class="st0" d="M571.8,212.8L536.4,307h16.6l6.2-17.9h36.3l6.2,17.9h16.6L583,212.8H571.8z M564.4,274.3l13-37.4l13,37.4
					H564.4z"/>
				<path class="st0" d="M659.2,255.3v14.8h16.7v2.8c0,6.1-1.6,10.8-4.8,14.2c-3.2,3.4-7.4,5.1-12.8,5.1c-5.4,0-9.8-1.6-13.1-4.8
					c-3.3-3.2-4.9-7.5-4.9-12.8V247c0-5.9,1.6-10.6,4.8-14.2c3.2-3.6,7.5-5.4,12.8-5.4c3.6,0,7,1.1,10.1,3.2
					c3.2,2.1,5.3,5.2,6.4,9.2H691c-1.1-5.6-3.2-10.5-6.3-14.7c-3.1-4.2-7-7.4-11.6-9.8c-4.6-2.3-9.7-3.5-15.3-3.5
					c-6.8,0-12.7,1.5-17.7,4.4c-5,2.9-8.9,7-11.7,12.3c-2.8,5.3-4.2,11.4-4.2,18.5v27.8c0,6.6,1.4,12.5,4.2,17.4
					c2.8,5,6.8,8.8,11.9,11.6c5.1,2.7,11.1,4.1,17.9,4.1c6.8,0,12.7-1.5,17.7-4.4c5-2.9,8.9-7,11.7-12.3c2.8-5.3,4.2-11.5,4.2-18.5
					v-17.4L659.2,255.3L659.2,255.3z"/>
				<path class="st0" d="M734.3,212.8L698.9,307h16.6l6.2-17.9H758l6.2,17.9h16.6l-35.3-94.1H734.3z M726.9,274.3l13-37.4l13,37.4
					H726.9z"/>
				<rect x="793.2" y="212.8" class="st0" width="15.8" height="94.1"/>
				<polygon class="st0" points="886.1,282.5 847.1,212.8 830.3,212.8 830.3,306.9 845.3,306.9 845.3,238.3 884.2,306.9 
					901.1,306.9 901.1,212.8 886.1,212.8 				"/>
				<polygon class="st0" points="952.1,307.9 952.1,307.9 952.1,307.9 				"/>
				<path class="st0" d="M977.7,259.5c-2.9-1.9-6.1-3.3-9.6-4.3c-3.5-1-7-1.8-10.6-2.5c-3.6-0.7-6.9-1.5-10-2.3
					c-3.1-0.8-5.6-2.1-7.5-3.8c-1.9-1.7-2.9-4.2-2.9-7.5v-0.1c0-4,1.6-7,4.9-9.2s7.9-3.3,13.8-3.3c3.6,0,7.2,0.7,11,2
					c3.8,1.3,7.4,3.3,11.1,5.9l7.5-12.7c-4.6-3.2-9.4-5.7-14.4-7.3c-5-1.7-10.1-2.5-15.1-2.5c-10.8,0-19.2,2.5-25.1,7.4
					c-5.9,4.9-8.9,11.9-8.9,20.8v0.1c0,5.6,0.9,10,2.8,13.4c1.9,3.3,4.4,5.9,7.4,7.7c3.1,1.8,6.5,3.1,10.2,3.9
					c3.7,0.8,7.3,1.5,10.9,2.1c3.4,0.6,6.5,1.2,9.3,2c2.9,0.8,5.1,2,6.9,3.7s2.6,4.1,2.6,7.3v0.1c0,4.1-1.7,7.3-5.2,9.5
					s-8.4,3.4-14.7,3.4c-5,0-9.8-0.8-14.3-2.4c-4.5-1.6-8.6-3.9-12.2-7l-8.2,12.4c3.1,2.5,6.4,4.7,10,6.4c3.6,1.7,7.5,3,11.7,3.9
					c4.2,0.9,8.5,1.3,13,1.3c11.2,0,19.8-2.4,26-7.3c6.2-4.8,9.2-11.7,9.2-20.6v-0.1c0-5.2-0.9-9.5-2.6-12.7
					C982.9,263.9,980.6,261.4,977.7,259.5z"/>
				<polygon class="st0" points="991.8,227.7 1018,227.7 1018,307 1033.4,307 1033.4,227.7 1059.5,227.7 1059.5,212.8 991.8,212.8 
									"/>
			</g>
			<g>
				<rect x="1103.6" y="212.8" class="st0" width="15.8" height="94.1"/>
				<polygon class="st0" points="1156.2,212.8 1140.7,212.8 1140.7,307 1148,307 1156.2,307 1202.5,307 1202.5,292.1 1156.2,292.1 
									"/>
				<polygon class="st0" points="1232.2,212.8 1216.7,212.8 1216.7,307 1224,307 1232.2,307 1278.5,307 1278.5,292.1 1232.2,292.1 
									"/>
				<rect x="1292.1" y="212.8" class="st0" width="15.8" height="94.1"/>
				<path class="st0" d="M1347.9,232.5c3.1-3.6,7.4-5.3,12.8-5.3c2.7,0,5.2,0.6,7.5,1.8c2.3,1.2,4.3,2.9,6,5.1
					c1.7,2.2,2.9,4.9,3.7,8h15.9c-1.1-6.3-3.2-11.6-6.2-16.1c-3.1-4.5-6.9-8-11.4-10.4c-4.6-2.4-9.7-3.7-15.4-3.7
					c-6.9,0-12.8,1.4-17.8,4.3c-5,2.8-8.9,6.9-11.6,12.1c-2.7,5.2-4,11.5-4,18.7v25.8c0,7.2,1.3,13.4,4,18.7
					c2.7,5.3,6.6,9.3,11.6,12.1c5,2.8,10.9,4.2,17.8,4.2l0,0c5.7,0,10.8-1.2,15.4-3.7c4.6-2.4,8.4-5.9,11.4-10.4
					c3-4.5,5.1-9.9,6.3-16.1h-15.9c-1.1,4.8-3.3,8.5-6.4,11.1c-3.1,2.6-6.7,3.9-10.7,3.9c-5.4,0-9.7-1.8-12.8-5.3
					c-3.1-3.5-4.7-8.4-4.7-14.5V247C1343.2,240.9,1344.8,236,1347.9,232.5z"/>
				<rect x="1409.3" y="212.8" class="st0" width="15.8" height="94.1"/>
				<polygon class="st0" points="1438.7,227.7 1464.8,227.7 1464.8,307 1480.2,307 1480.2,227.7 1506.4,227.7 1506.4,212.8 
					1438.7,212.8 				"/>
			</g>
			<g>
				<polygon class="st0" points="1557.5,212.8 1551.1,212.8 1551.1,307 1566.5,307 1566.5,268.4 1604.5,268.4 1604.5,253.7 
					1566.5,253.7 1566.5,227.7 1611.6,227.7 1611.6,212.8 1566.5,212.8 				"/>
				<rect x="1625.8" y="212.8" class="st0" width="15.8" height="94.1"/>
				<polygon class="st0" points="1718.8,282.5 1679.8,212.8 1663,212.8 1663,306.9 1678,306.9 1678,238.3 1716.8,306.9 
					1733.8,306.9 1733.8,212.8 1718.8,212.8 				"/>
				<path class="st0" d="M1780.8,212.8l-35.3,94.1h16.6l6.2-17.9h36.3l6.2,17.9h16.6l-35.3-94.1H1780.8z M1773.4,274.3l13-37.4
					l13,37.4H1773.4z"/>
				<polygon class="st0" points="1896.1,282.5 1857.2,212.8 1840.3,212.8 1840.3,306.9 1855.3,306.9 1855.3,238.3 1894.2,306.9 
					1911.1,306.9 1911.1,212.8 1896.1,212.8 				"/>
				<path class="st0" d="M1951.8,232.5c3.1-3.6,7.4-5.3,12.8-5.3c2.7,0,5.2,0.6,7.5,1.8c2.3,1.2,4.3,2.9,6,5.1
					c1.7,2.2,2.9,4.9,3.7,8h15.9c-1.1-6.3-3.2-11.6-6.2-16.1c-3.1-4.5-6.9-8-11.4-10.4c-4.6-2.4-9.7-3.7-15.4-3.7
					c-6.9,0-12.8,1.4-17.8,4.3c-5,2.8-8.9,6.9-11.6,12.1s-4,11.5-4,18.7v25.8c0,7.2,1.3,13.4,4,18.7c2.7,5.3,6.6,9.3,11.6,12.1
					c5,2.8,10.9,4.2,17.8,4.2l0,0c5.7,0,10.8-1.2,15.4-3.7c4.6-2.4,8.4-5.9,11.4-10.4c3-4.5,5.1-9.9,6.3-16.1h-15.9
					c-1.1,4.8-3.3,8.5-6.4,11.1c-3.1,2.6-6.7,3.9-10.7,3.9c-5.4,0-9.7-1.8-12.8-5.3c-3.1-3.5-4.7-8.4-4.7-14.5V247
					C1947.1,240.9,1948.7,236,1951.8,232.5z"/>
				<polygon class="st0" points="2075.6,227.7 2075.6,212.8 2029.4,212.8 2020.3,212.8 2013.9,212.8 2013.9,307 2020.3,307 
					2029.4,307 2075.6,307 2075.6,292.1 2029.4,292.1 2029.4,267.6 2068.5,267.6 2068.5,252.8 2029.4,252.8 2029.4,227.7 				"/>
			</g>
		</g>
	</g>
	<g>
		<g>
			<path class="st1" d="M334.7,103.8c-35.2,50.1-80.1,91.6-131.5,122.6c-8.7-2.9-18-5.1-28-5.9c-2.1-0.2-4.6-0.3-7.5-0.3
				c-9.3,0-40.8,1.1-76.6,14.3c-0.8-3-1.6-6-2.3-9.1c-2.6-11.4-3.9-23.4-3.9-35.6c0-90,73-162.9,162.9-162.9c2.1,0,4.3,0,6.4,0.1
				c-80.1,3.2-144.1,69.2-144.1,150.2c0,15.3,2.3,30.1,6.6,44C199.3,205.8,275.6,165,334.7,103.8L334.7,103.8z"/>
			<path class="st1" d="M267.2,257c-0.7-0.3-1.4-0.6-2.1-1c35.7-36.4,64.6-79.6,84.8-127.5c-12,48.3-32,93.7-58.8,134.5
				c-10.3-0.5-18.3-2.3-22.7-5.4l-0.6-0.4L267.2,257L267.2,257z"/>
			<path class="st1" d="M410.8,189.8c0,30.9-8.6,59.8-23.5,84.4l-20.7,9.5c26-25.9,42.5-61.2,44.1-100.3
				C410.8,185.5,410.8,187.6,410.8,189.8L410.8,189.8z"/>
			<path class="st1" d="M393.5,0c-6.9,26.4-15.8,52.1-26.4,76.8c-3.8,8.9-7.9,17.6-12.1,26.3c-26.7,54.1-62.2,103.2-104.9,145.4l0,0
				c-2.1-1.1-4.2-2.3-6.4-3.4c-8.8-4.7-17.6-9.5-27-13.6c52.7-35.6,97.6-82,131.6-136.2c4.8-7.7,9.4-15.6,13.8-23.6
				C374.4,49,385,25,393.5,0L393.5,0z"/>
			<path class="st1" d="M357.2,67.3c-24.9-21.8-57.4-35-93.1-35c-78,0-141.3,63.2-141.3,141.3c0,1.9,0,3.7,0.1,5.6
				c2.8-69.5,60-125,130.2-125c35.1,0,67,13.9,90.4,36.5c4.5-7.2,8.8-14.6,12.8-22C356.7,68.2,356.9,67.7,357.2,67.3L357.2,67.3
				L357.2,67.3z"/>
			<path class="st1" d="M405.4,173.6c0,41.7-18.1,79.1-46.8,105c1.8-5.5,2.2-11.5,1.1-17.7l-0.2-1.1l0,0c15.1-21.3,24-47.3,24-75.3
				s-9-54.4-24.3-75.8c0.5-0.9,0.9-1.9,1.4-2.8c3.9-7.9,7.6-15.8,11.1-23.9C392.7,106.7,405.4,138.6,405.4,173.6L405.4,173.6z"/>
		</g>
		<path class="st0" d="M478.9,286.1l-168.2,81.4c-8.7,3-17.1,4.2-25.2,4.2c-23.9,0-46-10.8-69.1-22c-13.4-6.5-27.2-13.2-41.8-17.9
			c-2.3-0.7-4.7-1.5-7.2-2.4c-22.9-7.7-56.4-19.1-95.7-19.1c-22.3,0-46.5,3.7-71.7,13.9c20.8-45,58.2-69.5,93.3-82.5
			c30.6-11.3,59.5-14,74.4-14c2.8,0,5.1,0.1,6.9,0.2c6.9,0.6,13.5,1.9,19.8,3.6c5,1.4,9.9,3.1,14.7,5c12.4,5,24,11.4,35.3,17.5
			c5,2.7,10,5.3,15,7.7c1.6,0.8,3.1,1.5,4.7,2.2c5.3,3.6,13.1,5.6,22.1,6.4c3.3,0.3,6.8,0.4,10.3,0.4c20.2,0,43.2-4.3,55.7-8.5
			c0.4,2.2,0.5,4.3,0.5,6.3c-0.5,19.5-20.3,32-46.1,34.9l0,0c-3.8,0.4-7.8,0.6-11.8,0.6c-9.5,0-19.5-1.2-29.5-3.7
			c5.8,4.3,16.7,7,29.8,7.6l0,0c2,0.1,4,0.1,6,0.1c2.2,0,4.5-0.1,6.8-0.2l0,0c12.2-0.6,25.5-2.9,38-7.1c1.9-0.6,3.7-1.3,5.5-2
			l27.9-12.8l75.7-34.7c2.4-0.8,4.9-1.1,7.3-1.1c7.6,0,15,3.6,19.2,9.8C487.3,268.3,486.1,279,478.9,286.1L478.9,286.1z"/>
	</g>
</g>
</svg>
