<?xml version="1.0" encoding="UTF-8"?>
<svg id="Layer_1" data-name="Layer 1" xmlns="http://www.w3.org/2000/svg" viewBox="0 0 1330.95 936.54">
  <defs>
    <style>
      .cls-1, .cls-2, .cls-3 {
        fill: #fff;
      }

      .cls-2 {
        fill-rule: evenodd;
      }

      .cls-4 {
        letter-spacing: 0em;
      }

      .cls-5 {
        letter-spacing: -.04em;
      }

      .cls-6 {
        letter-spacing: 0em;
      }

      .cls-7 {
        letter-spacing: -.02em;
      }

      .cls-8 {
        letter-spacing: 0em;
      }

      .cls-9 {
        letter-spacing: .04em;
      }

      .cls-3 {
        font-family: Bahnschrift-SemiBold, Bahnschrift;
        font-size: 121.68px;
        font-variation-settings: 'wght' 600, 'wdth' 100;
        font-weight: 600;
      }

      .cls-10 {
        letter-spacing: -.03em;
      }

      .cls-11 {
        letter-spacing: 0em;
      }

      .cls-12 {
        letter-spacing: .02em;
      }

      .cls-13 {
        letter-spacing: 0em;
      }
    </style>
  </defs>
  <text class="cls-3" transform="translate(1.78 757.61)"><tspan class="cls-12" x="0" y="0">T</tspan><tspan x="60.96" y="0">HE I</tspan><tspan class="cls-9" x="282.46" y="0">N</tspan><tspan class="cls-12" x="372.41" y="0">T</tspan><tspan class="cls-8" x="433.37" y="0">I</tspan><tspan class="cls-7" x="465.69" y="0">A</tspan><tspan class="cls-12" x="542.1" y="0">TI</tspan><tspan class="cls-4" x="638.95" y="0">V</tspan><tspan class="cls-11" x="710.96" y="0">E </tspan><tspan class="cls-5" x="816.36" y="0">A</tspan><tspan class="cls-10" x="890.39" y="0">G</tspan><tspan x="965.49" y="0">AINST </tspan><tspan x="210.75" y="146.02">ILLI</tspan><tspan class="cls-13" x="417.27" y="146.02">C</tspan><tspan class="cls-9" x="491.36" y="146.02">I</tspan><tspan x="529.62" y="146.02">T </tspan><tspan class="cls-6" x="620.89" y="146.02">F</tspan><tspan class="cls-11" x="690.1" y="146.02">I</tspan><tspan class="cls-8" x="723.62" y="146.02">N</tspan><tspan x="807.63" y="146.02">AN</tspan><tspan class="cls-8" x="971.61" y="146.02">C</tspan><tspan class="cls-11" x="1045.7" y="146.02">E</tspan></text>
  <g>
    <g>
      <path class="cls-2" d="m816.17,172.4c-58.49,83.2-133.14,152.2-218.42,203.62-14.51-4.87-29.86-8.43-46.46-9.86-3.42-.3-7.73-.46-12.44-.46-15.39,0-67.69,1.8-127.23,23.76-1.42-4.96-2.7-9.97-3.83-15.04-4.25-19.03-6.48-38.83-6.48-59.14,0-149.49,121.18-270.67,270.68-270.67,3.58,0,7.15.06,10.69.2-133.13,5.4-239.41,115.04-239.41,249.5,0,25.45,3.8,50,10.88,73.13,137.09-25.6,263.92-93.26,362.02-195.02Z"/>
      <path class="cls-2" d="m704.08,426.94c-1.17-.52-2.35-1.04-3.51-1.58,59.37-60.47,107.4-132.17,140.79-211.87-19.86,80.31-53.1,155.72-97.6,223.48-17.18-.79-30.37-3.89-37.67-8.91l-.96-.65-1.06-.47Z"/>
      <path class="cls-2" d="m942.66,315.27c0,51.31-14.27,99.29-39.07,140.17l-34.42,15.77c43.14-42.97,70.65-101.61,73.28-166.65.14,3.55.21,7.13.21,10.71Z"/>
      <path class="cls-2" d="m913.89,0c-11.5,43.89-26.21,86.54-43.88,127.67-6.33,14.76-13.07,29.31-20.16,43.66-44.41,89.81-103.4,171.41-174.29,241.55h-.01c-3.51-1.86-7.05-3.76-10.66-5.7-14.56-7.8-29.31-15.71-44.89-22.51,87.52-59.19,162.12-136.21,218.57-226.34,8.04-12.81,15.69-25.9,22.98-39.22,20.62-37.78,38.18-77.59,52.34-119.1Z"/>
      <path class="cls-2" d="m853.58,111.78c-41.3-36.21-95.41-58.15-154.64-58.15-129.61,0-234.69,105.07-234.69,234.69,0,3.11.06,6.2.18,9.28,4.68-115.43,99.73-207.58,216.31-207.58,58.36,0,111.32,23.09,150.26,60.63,7.45-11.99,14.57-24.19,21.34-36.58.42-.76.83-1.52,1.24-2.28h0Z"/>
      <path class="cls-2" d="m933.63,288.32c0,69.24-29.99,131.49-77.7,174.45,2.96-9.17,3.59-19.05,1.81-29.35l-.31-1.78h0c25.08-35.35,39.81-78.53,39.81-125.15s-14.94-90.38-40.32-125.84c.78-1.56,1.56-3.12,2.33-4.68,6.47-13.09,12.63-26.32,18.47-39.71,34.86,40.96,55.9,94.05,55.9,152.05Z"/>
    </g>
    <path class="cls-1" d="m1055.8,475.29l-279.47,135.22c-14.43,4.91-28.34,7-41.91,7-39.69,0-76.45-18-114.75-36.61-22.33-10.86-45.18-21.92-69.47-29.76-3.78-1.22-7.78-2.56-12-3.96-38.08-12.76-93.67-31.81-158.93-31.81-37.05,0-77.23,6.14-119.06,23.08,34.53-74.83,96.62-115.48,155.05-137.11,50.8-18.8,98.83-23.23,123.56-23.23,4.67,0,8.51.16,11.38.41,11.5.99,22.44,3.12,32.95,6.04,8.37,2.32,16.48,5.17,24.36,8.35,20.64,8.32,39.82,18.99,58.7,29.06,8.36,4.45,16.64,8.78,24.99,12.73,2.61,1.24,5.23,2.45,7.85,3.6,8.76,6.01,21.77,9.27,36.7,10.58,5.5.48,11.26.71,17.16.71,33.6,0,71.75-7.22,92.58-14.06.62,3.63.88,7.13.78,10.5-.87,32.45-33.66,53.13-76.57,57.9h-.01c-6.32.71-12.87,1.07-19.56,1.07-15.81,0-32.47-2-49.02-6.17,9.68,7.13,27.68,11.61,49.44,12.66h.01c3.25.16,6.57.24,9.97.24,3.7,0,7.48-.1,11.33-.29h.01c20.33-1.02,42.37-4.77,63.13-11.77,3.07-1.03,6.1-2.12,9.09-3.3l46.31-21.23,125.83-57.67c4.01-1.25,8.11-1.86,12.17-1.86,12.68,0,24.88,5.95,31.98,16.34,9.39,13.71,7.48,31.6-4.61,43.35Z"/>
  </g>
</svg>