<?xml version="1.0" encoding="utf-8"?>
<!-- Generator: Adobe Illustrator 27.4.0, SVG Export Plug-In . SVG Version: 6.00 Build 0)  -->
<svg version="1.1" id="Layer_1" xmlns="http://www.w3.org/2000/svg" xmlns:xlink="http://www.w3.org/1999/xlink" x="0px" y="0px"
	 viewBox="0 0 512 512" style="enable-background:new 0 0 512 512;" xml:space="preserve">
<style type="text/css">
	.st0{fill:#FFFFFF;}
</style>
<g>
	<path class="st0" d="M261.6,149.5c33.7,0,57.1-40.8,57.1-77.5S294.7,8,261.6,8s-57.1,26.9-57.1,64S227.9,149.5,261.6,149.5
		L261.6,149.5z M221.9,72c0-27.4,16.3-46.6,39.7-46.6s39.7,19.1,39.7,46.6c0,30.8-19.3,60-39.7,60S221.9,102.9,221.9,72z"/>
	<path class="st0" d="M358.5,302.1c-2.2-25.8-14.6-48.7-33-64.8l0.5-13.6c0-4.4,1.8-8.7,4.9-11.8l89.6-89.4c5.1-5.1,8-11.9,8-19.2
		c0-8.4-4-16.4-10.6-21.5c-9.4-7.2-22.6-7.5-32.3-0.6l-98.3,70.2c-3.9,2.8-8.7,4.3-13.5,4.3h-24.4c-4.8,0-9.6-1.5-13.5-4.3
		l-98.3-70.2c-9.5-6.8-23.1-6.6-32.3,0.6c-6.2,4.8-10,11.9-10.5,19.7c-0.5,7.8,2.4,15.4,7.9,21l89.6,89.3c3.1,3.1,4.9,7.4,4.9,12.1
		l0.5,13.2c-1,0.9-2.1,1.8-3.1,2.8c-19.6,18.6-30.3,43.6-30.3,70.6s11.9,54.4,32.8,72.8c7.5,6.7,12.7,16,14.6,26.1l1.7,9.3
		c1.9,10.5,11.1,18.2,21.8,18.2h52.7c10.7,0,19.9-7.6,21.8-18.2l1.7-9.3c1.9-10.3,6.9-19.4,14-25.7
		C349.1,363.3,361.1,333.5,358.5,302.1L358.5,302.1z M261.6,319c-4.6,0-8.4-3.8-8.4-8.4s3.8-8.4,8.4-8.4s8.4,3.8,8.4,8.4
		S266.2,319,261.6,319z M270.3,334.9c10-3.6,17.1-13.2,17.1-24.4c0-14.3-11.6-25.9-25.9-25.9s-25.9,11.6-25.9,25.9
		c0,11.2,7.2,20.8,17.1,24.4v84.6h-17.6c-2.3,0-4.2-1.6-4.7-3.9l-1.7-9.3c-2.6-14-9.7-26.8-20.2-36c-17.1-15.1-26.9-36.9-26.9-59.8
		s8.8-42.7,24.9-57.9c14.9-14.1,34.4-21.9,54.9-21.9c1.5,0,2.9,0,4.4,0.1c16.6,0.9,31.9,6.9,44.3,16.5c0.6,0.6,1.3,1.2,2,1.6
		c16.1,13.3,27,32.7,28.9,54.7c2.2,25.7-7.7,50.2-27,67.1c-10.1,8.9-17.1,21.5-19.8,35.7l-1.7,9.3c-0.4,2.2-2.4,3.9-4.7,3.9h-17.6
		L270.3,334.9L270.3,334.9z M214.6,223.6c0-9-3.7-17.8-10-24.1L115,110.2c-2-2-3-4.7-2.8-7.5c0.2-2.8,1.5-5.3,3.8-7
		c3.2-2.5,8.2-2.6,11.5-0.2l98.3,70.2c6.8,4.9,15.2,7.6,23.7,7.6h24.4c8.4,0,16.8-2.7,23.7-7.6l98.3-70.2c3.5-2.4,8.2-2.4,11.5,0.2
		c2.4,1.8,3.8,4.6,3.8,7.6c0,2.6-1,5-2.8,6.8l-89.6,89.4c-6.3,6.3-10,15-10,23.8l-0.1,2c-12.5-6.9-26.6-11.1-41.6-11.9
		c-18.5-1-36.4,3.2-52.1,11.8L214.6,223.6L214.6,223.6z"/>
	<path class="st0" d="M299.1,440.3H224c-4.8,0-8.7,3.9-8.7,8.7s3.9,8.7,8.7,8.7h75.1c4.8,0,8.7-3.9,8.7-8.7S304,440.3,299.1,440.3z"
		/>
	<path class="st0" d="M299.1,461.1H224c-4.8,0-8.7,3.9-8.7,8.7s3.9,8.7,8.7,8.7h75.1c4.8,0,8.7-3.9,8.7-8.7S304,461.1,299.1,461.1z"
		/>
	<path class="st0" d="M285.6,481.9h-48.1c-4.8,0-8.7,3.9-8.7,8.7s3.9,8.7,8.7,8.7h48.1c4.8,0,8.7-3.9,8.7-8.7
		S290.4,481.9,285.6,481.9z"/>
	<path class="st0" d="M419.7,301.8H385c-4.8,0-8.7,3.9-8.7,8.7s3.9,8.7,8.7,8.7h34.7c4.8,0,8.7-3.9,8.7-8.7S424.5,301.8,419.7,301.8
		z"/>
	<path class="st0" d="M377.5,277.1c1,0,2-0.2,3-0.5l32.6-11.9c4.5-1.6,6.9-6.7,5.2-11.2c-1.6-4.5-6.7-6.9-11.2-5.2l-32.6,11.9
		c-4.5,1.6-6.9,6.7-5.2,11.2C370.6,274.8,373.9,277.1,377.5,277.1L377.5,277.1z"/>
	<path class="st0" d="M389.4,203.3c-3.1-3.7-8.6-4.2-12.3-1.1l-26.6,22.3c-3.7,3.1-4.2,8.6-1.1,12.3c1.7,2,4.1,3.1,6.7,3.1
		c2,0,4-0.7,5.6-2l26.6-22.3C392,212.5,392.5,207,389.4,203.3L389.4,203.3z"/>
	<path class="st0" d="M413.2,356.5l-32.6-11.9c-4.5-1.6-9.5,0.7-11.2,5.2c-1.6,4.5,0.7,9.5,5.2,11.2l32.6,11.9c1,0.4,2,0.5,3,0.5
		c3.7,0,7-2.3,8.2-5.8C420,363.1,417.7,358.1,413.2,356.5z"/>
	<path class="st0" d="M388.3,405.5l-26.6-22.3c-3.7-3.1-9.2-2.6-12.3,1.1c-3.1,3.7-2.6,9.2,1.1,12.3l26.6,22.3c1.6,1.3,3.6,2,5.6,2
		c2.6,0,5-1.1,6.7-3.1C392.5,414.1,392,408.6,388.3,405.5L388.3,405.5z"/>
	<path class="st0" d="M146.9,310.6c0-4.8-3.9-8.7-8.7-8.7h-34.7c-4.8,0-8.7,3.9-8.7,8.7s3.9,8.7,8.7,8.7h34.7
		C143,319.3,146.9,315.4,146.9,310.6z"/>
	<path class="st0" d="M104.8,253.5c-1.7,4.5,0.7,9.6,5.2,11.2l32.6,11.9c1,0.4,2,0.5,3,0.5c3.7,0,7-2.3,8.2-5.8
		c1.6-4.5-0.7-9.5-5.2-11.2L116,248.3C111.5,246.6,106.4,249,104.8,253.5L104.8,253.5z"/>
	<path class="st0" d="M161.4,237.9c1.6,1.3,3.6,2,5.6,2c2.6,0,5-1.1,6.7-3.1c3.1-3.7,2.6-9.2-1.1-12.3L146,202.2
		c-3.7-3.1-9.2-2.6-12.3,1.1c-3.1,3.7-2.6,9.2,1.1,12.3L161.4,237.9z"/>
	<path class="st0" d="M153.8,349.8c-1.6-4.5-6.7-6.9-11.2-5.2L110,356.5c-4.5,1.6-6.9,6.7-5.2,11.2c1.2,3.4,4.6,5.8,8.2,5.8
		c1,0,2-0.2,3-0.5l32.6-11.9C153.1,359.3,155.5,354.3,153.8,349.8z"/>
	<path class="st0" d="M161.4,383.2l-26.6,22.3c-3.7,3.1-4.2,8.6-1.1,12.3c1.7,2,4.1,3.1,6.7,3.1c2.1,0,4-0.7,5.6-2l26.6-22.3
		c3.7-3.1,4.2-8.6,1.1-12.3C170.6,380.6,165.1,380.1,161.4,383.2z"/>
</g>
</svg>
