<?xml version="1.0" encoding="utf-8"?>
<!-- Generator: Adobe Illustrator 27.4.0, SVG Export Plug-In . SVG Version: 6.00 Build 0)  -->
<svg version="1.1" id="Layer_1" xmlns="http://www.w3.org/2000/svg" xmlns:xlink="http://www.w3.org/1999/xlink" x="0px" y="0px"
	 viewBox="0 0 512 512" style="enable-background:new 0 0 512 512;" xml:space="preserve">
<style type="text/css">
	.st0{fill:#FFFFFF;}
</style>
<g>
	<path class="st0" d="M178.1,120.1h-66.5c-13.1,0-23.7,10.6-23.7,23.7v73.5c0,13.1,10.6,23.7,23.7,23.7h66.5
		c13.1,0,23.7-10.6,23.7-23.7v-73.5C201.8,130.8,191.2,120.1,178.1,120.1z M180.8,143.9v73.5c0,1.4-1.3,2.7-2.7,2.7h-66.5
		c-1.4,0-2.7-1.3-2.7-2.7v-73.5c0-1.4,1.3-2.7,2.7-2.7h66.5C179.5,141.1,180.8,142.4,180.8,143.9z"/>
	<path class="st0" d="M315.8,123.8h-89.1c-5.8,0-10.5,4.7-10.5,10.5s4.7,10.5,10.5,10.5h89.1c5.8,0,10.5-4.7,10.5-10.5
		S321.6,123.8,315.8,123.8z"/>
	<path class="st0" d="M315.8,171.9h-89.1c-5.8,0-10.5,4.7-10.5,10.5s4.7,10.5,10.5,10.5h89.1c5.8,0,10.5-4.7,10.5-10.5
		S321.6,171.9,315.8,171.9z"/>
	<path class="st0" d="M503.2,451.5L456,391c-2.5-3.2-6.1-5.3-10.2-5.8c-4.1-0.5-8.1,0.6-11.3,3.1l-5,3.9L423,384
		c18-19.2,28.3-44.2,29.2-70.4c0.9-29-9.5-56.6-29.3-77.7c-15.5-16.5-35.4-27.5-57.8-32V76.7c0-14.7-12-26.7-26.7-26.7h-14.5V37
		c0-14.7-12-26.7-26.7-26.7h-265c-14.7,0-26.7,12-26.7,26.7v343.8c0,14.7,12,26.7,26.7,26.7h14.5v13c0,14.7,12,26.7,26.7,26.7h265
		c14.7,0,26.7-12,26.7-26.7v-4.1c15.3-3,29.5-9.2,42.2-18.5l5.6,7.2l-5,3.9c-6.7,5.2-7.8,14.9-2.6,21.5l47.3,60.5
		c2.9,3.7,7.3,5.9,12.1,5.9h0c3.4,0,6.8-1.1,9.4-3.2l26.5-20.7c3.2-2.5,5.3-6.1,5.8-10.2C506.9,458.8,505.8,454.7,503.2,451.5
		L503.2,451.5z M344.1,201.7c-0.1,0-0.3,0-0.4,0c-21.5,0-42.3,6.3-60.2,18.4h-56.7c-5.8,0-10.5,4.7-10.5,10.5s4.7,10.5,10.5,10.5
		h33.3c-6.8,8.2-12.3,17.3-16.4,27.1H98.4c-5.8,0-10.5,4.7-10.5,10.5s4.7,10.5,10.5,10.5h139c-1.7,8.9-2.3,18-1.8,27.1H98.4
		c-5.8,0-10.5,4.7-10.5,10.5s4.7,10.5,10.5,10.5h140.5c2.5,9.6,6.2,18.7,11.1,27.1H98.4c-5.8,0-10.5,4.7-10.5,10.5
		s4.7,10.5,10.5,10.5h167.4c19.7,20.4,46.1,32.1,74.5,33c1.3,0,2.6,0,3.8,0v2c0,3.1-2.6,5.7-5.7,5.7h-265c-3.2,0-5.7-2.5-5.7-5.7
		V76.7c0-3.2,2.6-5.7,5.7-5.7h265c3.1,0,5.7,2.6,5.7,5.7V201.7z M279.9,370c-33-35.2-31.2-90.7,4-123.7
		c16.3-15.3,37.5-23.7,59.8-23.7c1,0,1.9,0,2.9,0.1c23.4,0.8,45,10.6,61,27.6c16,17,24.3,39.3,23.6,62.7c-0.8,23.4-10.5,45-27.6,61
		c-17,15.9-39.2,24.4-62.6,23.6C317.5,396.8,295.9,387,279.9,370L279.9,370z M302.9,50H73.4c-14.7,0-26.7,12-26.7,26.7v309.8H32.2
		c-3.1,0-5.7-2.6-5.7-5.7V37c0-3.2,2.6-5.7,5.7-5.7h265c3.1,0,5.7,2.6,5.7,5.7L302.9,50L302.9,50z M483.2,460l-17.6,13.7l-40.3-51.6
		l17.6-13.8L483.2,460L483.2,460z"/>
	<path class="st0" d="M394.6,364.3c29.9-28,31.4-75.2,3.4-105.1l0,0c-28-29.9-75.2-31.4-105-3.4c-14.5,13.6-22.8,32-23.4,51.8
		s6.5,38.8,20,53.2c14,14.9,33.7,23.4,54.2,23.4C362.7,384.4,380.8,377.3,394.6,364.3L394.6,364.3z M304.8,346.6
		c-19.9-21.3-19-54.7,1.9-74.8l0.6-0.5c9.9-9.3,22.8-14.4,36.5-14.4c14.7,0,28.9,6.1,38.9,16.8c20.1,21.5,19,55.3-2.4,75.4
		C358.8,369.1,325,368,304.8,346.6L304.8,346.6z"/>
	<path class="st0" d="M339.7,286.1c13-2.8,25.9,5.4,28.7,18.4c1,4.8,5.4,8.3,10.2,8.3h0c0.8,0,1.5-0.1,2.2-0.2
		c2.7-0.6,5.1-2.2,6.6-4.6s2-5.2,1.4-7.9c-5.3-24.3-29.4-39.7-53.6-34.4c-5.7,1.2-9.3,6.8-8,12.5C328.4,283.8,334,287.4,339.7,286.1
		L339.7,286.1z"/>
</g>
</svg>
