<?xml version="1.0" encoding="UTF-8"?>
<svg id="Layer_3" data-name="Layer 3" xmlns="http://www.w3.org/2000/svg" viewBox="0 0 479.03 150">
  <defs>
    <style>
      .cls-1 {
        fill: #49395d;
      }

      .cls-1, .cls-2, .cls-3, .cls-4, .cls-5 {
        stroke-width: 0px;
      }

      .cls-2 {
        fill: #458bbd;
      }

      .cls-3 {
        fill: #a33349;
      }

      .cls-4 {
        fill: #5f9075;
      }

      .cls-5 {
        fill: #e5a55f;
      }
    </style>
  </defs>
  <g>
    <path class="cls-4" d="m71.58.42c6.17-1.72,13.18,1.96,15.27,8.01,1.51,4,.85,8.72-1.7,12.15-2.59,3.58-7.13,5.63-11.53,5.18-4.2-.34-8.13-2.92-10.12-6.63-1.99-3.56-2.11-8.07-.35-11.73,1.59-3.43,4.78-6.05,8.44-6.98Z"/>
    <path class="cls-4" d="m41.23,8.84c3.47-.74,7.36.12,9.98,2.57,2.32,2.25,3.55,5.41,3.96,8.57.54,4.07.79,8.21,2,12.16,1.12,3.86,3.21,7.6,6.57,9.93,3.95,2.79,9.02,3.39,13.72,2.93,4.09-.36,8.17-2.05,10.89-5.19,3.34-3.78,4.63-8.86,5.3-13.74.63-4.3.54-8.97,3.09-12.72,2.33-3.78,7.19-5.43,11.44-4.55,5.79,1.04,10.33,7.07,9.07,12.95-1.2,5.59-4.9,10.3-8.98,14.16-8.16,7.4-18.8,12-29.74,13.11-11.59,1-23.27-2.88-32.74-9.46-5.97-4.33-11.5-10.09-13.41-17.4-1.52-5.93,2.97-12.2,8.84-13.33Z"/>
  </g>
  <g>
    <path class="cls-1" d="m254.15,28.15c4.59-.69,9.32.43,13.43,2.49.74.42,2.04,1.01,1.52,2.09-.67,1.73-1.59,3.34-2.43,5-.34.56-.82,1.74-1.68,1.18-2.49-1.07-5.01-2.38-7.81-2.28-1.91-.04-4.31.77-4.71,2.89-.56,1.92,1.29,3.26,2.73,4.08,4.24,2.37,9.29,3.56,12.65,7.31,5.32,5.19,3.14,15.23-3.44,18.34-6.51,3.13-14.44,2.44-20.79-.75-1.34-.85-3.35-1.41-3.81-3.08.92-2.35,2.42-4.43,3.71-6.59.68-1.3,1.95-.12,2.76.37,3.36,2.39,7.76,4.2,11.85,2.62,2.45-.82,3.06-4.47.97-6.01-3.72-2.97-8.75-3.83-12.25-7.14-2.74-2.39-4.34-6.13-3.66-9.77.69-5.55,5.59-9.86,10.97-10.75Z"/>
    <path class="cls-1" d="m432.87,28.21c5.27-.72,10.85.02,15.59,2.52.75.32,1.55,1.1,1.11,1.97-.92,2.14-1.97,4.22-3.11,6.24-.47.96-1.6.13-2.27-.08-3.98-2.03-8.85-1.98-12.91-.22-3.48,1.52-6.13,4.77-6.9,8.49-.97,4.31.78,9.05,4.24,11.78,3.24,2.59,7.67,3.36,11.7,2.71,1.96-.26,3.65-1.38,5.54-1.89.89.49,1.15,1.58,1.64,2.4.71,1.65,1.79,3.16,2.2,4.93-.07.91-1,1.23-1.66,1.62-4.06,2.03-8.7,2.75-13.2,2.52-8.4-.56-16.32-6.09-19.55-13.9-2.04-4.83-2.02-10.45-.02-15.28,2.95-7.25,9.91-12.58,17.6-13.81Z"/>
    <path class="cls-1" d="m172.62,29.94c.09-1.93,2.61-1.03,3.86-1.25,6.25.45,13.02-1.21,18.82,1.82,7.91,4.14,7.72,17.34-.07,21.51-.71.54-1.92.7-2.14,1.68,4.31,5.72,9.39,10.86,13.5,16.72-3.41.13-6.83.11-10.24.07-1.06.08-1.97-.5-2.57-1.33-3.87-4.9-7.55-9.97-11.53-14.79-.42,5.16.07,10.36-.25,15.52l-.64.51c-2.54.2-5.11.14-7.66.04-1.23.07-1.12-1.43-1.12-2.26.05-12.74-.03-25.5.04-38.25Zm9.7,17.34c2.61-.19,5.82.18,7.71-2.04,1.45-2.02,1.44-5.13-.12-7.09-1.93-2.06-5.02-1.71-7.57-1.91-.41,3.65-.38,7.37-.02,11.03Z"/>
    <path class="cls-1" d="m210.92,29.04c.93-.56,2.11-.27,3.15-.36,6.63.13,13.28-.17,19.89.15.12.17.34.5.46.66.16,2.33.22,4.7-.06,7.02-.14.12-.42.34-.56.45-4.33.37-8.7-.18-13.02.24-.13.15-.39.47-.52.63-.17,2.31-.25,4.68.07,6.99.15.1.45.31.6.41,4.13.38,8.32-.25,12.43.28.12.15.34.46.45.61.18,2.31.24,4.67-.04,6.97-.13.13-.38.37-.51.5-4.14.42-8.33-.16-12.47.27-.13.15-.39.44-.52.59-.21,2.32-.21,4.67,0,7l.51.53c3.84.3,7.72.02,11.57.11.69.08,1.71-.13,2.04.7.2,2.31.19,4.65.01,6.95-.27.89-1.35.67-2.05.76-6.85-.05-13.71.07-20.56-.06-.92.1-1.29-.9-1.18-1.65-.04-12.38.02-24.77-.03-37.14.05-.87-.11-1.81.32-2.62Z"/>
    <path class="cls-1" d="m277.17,28.85c2.73-.28,5.51-.2,8.25-.06,1,.29.67,1.55.79,2.32-.02,12.36-.01,24.72,0,37.08-.11.73.19,1.98-.8,2.2-2.56.21-5.14.16-7.7.04-.92.08-1.07-.98-1.05-1.65-.02-12.55.02-25.1-.02-37.64.08-.76-.15-1.74.53-2.29Z"/>
    <path class="cls-1" d="m294.45,29.03c2.59-.71,5.48-.24,8.18-.27.95-.12,1.02,1.08,1.03,1.74,0,9.81,0,19.62,0,29.43.07.71-.14,1.68.66,2.05,4.35.38,8.74-.18,13.08.25.13.14.38.43.5.56.2,2.32.18,4.67,0,7-.46.97-1.73.58-2.58.71-6.67-.07-13.34.06-20-.06-.94.12-1.3-.91-1.19-1.67-.04-12.37.02-24.75-.03-37.13.08-.87-.16-1.86.35-2.63Z"/>
    <path class="cls-1" d="m323.74,29.03c2.61-.7,5.48-.25,8.18-.27.97-.14,1.02,1.08,1.05,1.74.02,12.57-.01,25.15.01,37.73-.03.79.08,2.23-1.08,2.19-2.4.15-4.82.11-7.22.03-.96.13-1.36-.87-1.24-1.66-.03-12.37.03-24.75-.03-37.13.07-.87-.14-1.85.33-2.64Z"/>
    <path class="cls-1" d="m341.37,28.86c7.33-.36,14.71-.1,22.07-.13,1.9-.07,1.21,2.32,1.37,3.51-.19,1.5.44,3.44-.55,4.65-4.44.63-9.06-.34-13.46.47-.72,1.66-.25,3.62-.38,5.4.09.84-.25,2.45,1.01,2.51,3.98.26,8-.17,11.99.18,1.41.89.55,3.05.81,4.48-.24,1.17.53,3.21-.9,3.71-4,.33-8.05-.13-12.05.19-1.22.3-.7,1.85-.86,2.75.15,1.74-.4,3.75.46,5.3,4.31.59,8.74-.08,13.09.32.17.12.52.37.69.49.23,2.36.21,4.75.02,7.11-.38.91-1.57.6-2.33.71-6.65-.06-13.31.04-19.97-.04-1.08.19-1.59-.77-1.48-1.7-.03-12.55.02-25.1-.02-37.65.08-.75-.12-1.68.5-2.26Z"/>
    <path class="cls-1" d="m372.05,30.55c-.11-.85.24-2.02,1.34-1.83,2.55-.02,5.13-.17,7.67.11,1.28.55,1.81,2,2.59,3.07,4.83,7.57,9.64,15.16,14.54,22.69.06-7.84.02-15.68.02-23.51.08-.77-.17-1.83.67-2.27,2.56-.2,5.13-.13,7.69-.06,1.34-.13,1.16,1.5,1.2,2.37-.1,12.91.13,25.82-.11,38.72-.14.14-.43.41-.56.55-2.57.23-5.17.15-7.74.07-1.06.03-1.71-.89-2.22-1.67-5.17-8.07-10.29-16.17-15.51-24.2-.08,8.05,0,16.1-.03,24.15-.02.65-.08,1.75-1,1.69-2.58.15-5.18.17-7.76-.02-.98-.26-.71-1.45-.8-2.19.03-12.55,0-25.1.02-37.65Z"/>
    <path class="cls-1" d="m455.38,29.01c1.16-.56,2.53-.24,3.78-.33,6.43.14,12.89-.22,19.31.17.97,2.32.4,5.13.33,7.62-.13.12-.38.35-.5.48-3.81.3-7.64.02-11.46.11-.76.07-1.72-.13-2.15.67-.15,2.36-.25,4.76.07,7.11.17.09.5.29.66.39,4.13.38,8.33-.29,12.43.31l.3.33c.33,2.36.22,4.78.06,7.15-.11.13-.32.4-.43.54-3.62.39-7.28.04-10.91.15-.76.07-1.75-.14-2.18.67-.17,2.33-.2,4.7.02,7.03l.57.57c4.34.38,8.73-.19,13.07.25,1.03.89.43,2.52.63,3.72-.2,1.41.45,3.23-.59,4.37-6.95.39-13.95.04-20.92.18-.89-.01-2.49.11-2.37-1.22-.11-12.53.01-25.07-.06-37.61.07-.88-.16-1.88.35-2.67Z"/>
    <path class="cls-1" d="m72.02,53.88c5.08-.66,10.38.56,14.62,3.43,4.2,2.79,7.31,7.14,8.65,11.99,1.85,6.59.28,14.03-4.1,19.28-5.25,6.53-14.55,9.35-22.54,6.81-6.15-1.78-11.3-6.55-13.62-12.5-2.63-6.49-1.73-14.24,2.25-19.99,3.35-4.91,8.86-8.26,14.75-9.03Z"/>
    <path class="cls-1" d="m173.21,82.59c6.98-.32,13.98-.02,20.96-.15.96.01,2.64-.13,2.51,1.31-.13,2.26.61,4.88-.46,6.93-4.49.55-9.07-.14-13.56.33-.11.15-.33.45-.44.61-.22,2.26-.23,4.55.01,6.81l.46.55c3.99.45,8.03-.11,12.03.25,1.23.21.76,1.81.91,2.68-.19,1.75.46,3.84-.5,5.39-4.09.65-8.31-.11-12.44.35-1.03.91-.45,2.51-.62,3.73-.15,4.16.38,8.43-.26,12.52-2.56.78-5.47.24-8.15.31-.96.11-1.14-1.05-1.08-1.75,0-12.56.02-25.13-.01-37.7.08-.74-.18-1.75.63-2.17Z"/>
    <path class="cls-1" d="m202.17,82.82c2.14-.78,4.69-.2,6.99-.37.83-.02,2.24-.02,2.14,1.19.14,8.12-.06,16.26.09,24.38.13,2.51.56,5.58,3.03,6.87,2.24,1.01,4.96,1,7.23.08,2.6-1.23,3.08-4.45,3.19-7.02.09-7.93,0-15.85.04-23.78.03-.6.02-1.54.84-1.62,2.56-.19,5.15-.17,7.72-.01,1.12,0,.93,1.43.99,2.18-.03,8.31.01,16.62-.02,24.93-.02,4.18-1.1,8.68-4.3,11.58-3.42,3.1-8.26,3.88-12.73,3.77-4.18-.09-8.64-1.12-11.67-4.18-2.89-2.93-3.85-7.19-3.88-11.18-.05-8.11.02-16.21-.03-24.32.12-.81-.21-1.85.39-2.51Z"/>
    <path class="cls-1" d="m242.04,84.78c.09-.75-.2-1.96.8-2.22,2.58-.19,5.19-.15,7.78-.03,1.61.18,2.16,1.99,3.02,3.11,4.85,7.57,9.63,15.18,14.56,22.7.12-8.05,0-16.11.06-24.16-.07-.71.17-1.79,1.12-1.67,2.41-.12,4.82-.11,7.24,0,.92-.1,1.23.93,1.14,1.67.02,12.57-.02,25.14.02,37.7-.09.76.19,1.85-.67,2.28-2.56.2-5.14.13-7.71.07-.95.04-1.61-.68-2.07-1.39-5.25-8.14-10.38-16.35-15.69-24.44-.11,8.02-.01,16.04-.04,24.06-.03.65-.03,1.86-1.02,1.75-2.57.13-5.17.15-7.74-.02-1.02-.29-.7-1.55-.8-2.33.02-12.36.02-24.71,0-37.06Z"/>
    <path class="cls-1" d="m286.18,82.77c.75-.47,1.71-.25,2.56-.33,3.5.07,7-.07,10.49.08,6.34.3,12.51,3.6,16.09,8.87,5.25,7.51,4.8,18.49-1.16,25.48-3.89,4.69-9.93,7.35-15.99,7.38-3.7,0-7.39.07-11.07-.03-1.11.17-1.36-1.02-1.29-1.85-.02-12.34.02-24.68-.02-37.01.09-.85-.17-1.86.38-2.59Zm9.5,8.37c-.42.75-.29,1.65-.34,2.48.02,6.46.03,12.92,0,19.38.02.84,0,1.71.27,2.53,3.05.6,6.34-.49,8.73-2.43,5.45-4.51,5.78-13.73.84-18.73-2.43-2.45-6.08-3.77-9.49-3.22Z"/>
  </g>
  <g>
    <path class="cls-5" d="m16.86,32.66c4.45-1.25,8.95.85,12.59,3.27,8.04,5.52,13.5,14.11,16.75,23.17,3.01,8.33,3.79,17.52,1.65,26.16-2.6,10.75-8.25,21.14-17.15,27.93-3.94,2.88-8.91,5.55-13.92,4.13-6.08-1.69-9.77-8.85-7.67-14.8,1.34-4.72,6.22-7.35,10.82-7.88,6.12-.76,12.64-1.15,17.95-4.64,4.05-2.57,6.51-7.15,6.97-11.86.74-5.99-.46-12.82-5.29-16.89-5.28-4.51-12.53-5.08-19.13-5.84-4.64-.45-9.67-2.89-11.2-7.61-2.35-6.03,1.38-13.49,7.64-15.16Z"/>
    <path class="cls-5" d="m9.68,62.51c6.11-1.7,13.05,1.89,15.2,7.84,1.68,4.24.86,9.34-2.06,12.85-2.56,3.14-6.66,4.96-10.71,4.68-4.14-.21-8.08-2.57-10.22-6.12-2.27-3.65-2.52-8.45-.65-12.31,1.59-3.42,4.78-6.02,8.43-6.94Z"/>
  </g>
  <g>
    <path class="cls-2" d="m127.44,32.55c3.78-.93,7.9.49,10.48,3.36,3.2,3.38,4.02,8.73,2.01,12.92-1.2,2.72-3.76,4.58-6.48,5.6-3.57,1.31-7.44,1.19-11.15,1.86-5.04.81-10.31,2.48-13.76,6.44-3.42,3.87-4.32,9.33-3.93,14.33.27,4.24,1.88,8.55,5.12,11.42,3.71,3.37,8.75,4.69,13.6,5.39,4.31.66,8.99.53,12.77,3.03,3.6,2.13,5.37,6.55,4.85,10.62-.56,6.01-6.48,11.11-12.57,10.1-5.11-.87-9.5-4.05-13.18-7.56-7.28-7.24-11.96-16.87-13.93-26.89-2.52-12.79,1.33-26.2,8.57-36.82,4.34-6.12,10.16-11.82,17.6-13.8Z"/>
    <path class="cls-2" d="m133.57,62.49c3.6-.91,7.58-.16,10.59,2.01,3.15,2.23,5.19,5.94,5.38,9.8.29,4.5-1.99,9.06-5.79,11.49-3.62,2.42-8.48,2.78-12.42.94-4.22-1.88-7.2-6.2-7.48-10.8-.56-6.07,3.79-12.08,9.72-13.45Z"/>
  </g>
  <g>
    <path class="cls-3" d="m68.91,101.24c10.24-1.48,20.74,1.16,29.75,6.04,6.44,3.52,12.34,8.4,16.11,14.76,1.7,2.93,3.06,6.31,2.56,9.76-.68,4.75-4.73,8.7-9.44,9.45-4.27.8-9.09-.99-11.31-4.83-2.59-4.02-2.31-8.96-3.08-13.49-.8-5.11-2.44-10.49-6.46-14.02-4.38-3.88-10.69-4.55-16.27-3.73-4.51.64-8.76,3.19-11.14,7.12-3.48,5.49-3.71,12.18-4.58,18.43-.66,4.49-3.47,9.1-8.12,10.25-6.21,1.99-13.46-2.3-14.63-8.71-.9-5.35,2.19-10.32,5.37-14.34,7.81-9.25,19.38-14.9,31.24-16.69Z"/>
    <path class="cls-3" d="m72.2,124.46c4.45-.95,9.33.69,12.29,4.16,3.11,3.5,4.02,8.73,2.32,13.09-1.68,4.55-6.13,7.89-10.97,8.24-4.63.43-9.38-1.9-11.86-5.83-2.45-3.72-2.75-8.72-.76-12.7,1.69-3.56,5.13-6.18,8.98-6.96Z"/>
  </g>
</svg>