<?xml version="1.0" encoding="UTF-8"?>
<svg id="Layer_1" data-name="Layer 1" xmlns="http://www.w3.org/2000/svg" viewBox="0 0 512 512">
  <g id="_40_Airport_Reception_Airport_Receptionist_Hotel" data-name="40, Airport Reception, Airport Receptionist, Hotel">
    <g>
      <path d="m486,213.65h-53.93c6.65-42.03-7.82-68.86-21.91-84.36-16.72-18.38-36.36-24.89-37.19-25.16-5.26-1.71-10.89,1.18-12.6,6.43-1.7,5.25,1.18,10.89,6.43,12.6.15.05,15.59,5.33,28.56,19.59,16.3,17.92,21.8,41.74,16.43,70.9h-26.18c-4.2-54.89-42.63-100.36-93.93-115.02,8.85-9.02,14.32-21.37,14.32-34.98,0-27.57-22.43-50-50-50s-50,22.43-50,50c0,13.61,5.47,25.96,14.32,34.98-51.3,14.66-89.74,60.13-93.94,115.02h-18.4c-12.85-70.21,42.42-89.63,45.01-90.5,5.24-1.71,8.1-7.34,6.4-12.58-1.7-5.25-7.34-8.13-12.6-6.43-.83.27-20.47,6.78-37.19,25.16-14.09,15.49-28.57,42.32-21.91,84.35H26c-5.52,0-10,4.48-10,10s4.48,10,10,10h30v250c0,5.52,4.48,10,10,10h380c5.52,0,10-4.48,10-10v-250h30c5.52,0,10-4.48,10-10s-4.48-10-10-10ZM226,63.65c0-16.54,13.46-30,30-30s30,13.46,30,30-13.46,30-30,30-30-13.46-30-30Zm30,50c57.29,0,104.48,44.01,109.55,100h-39.55v-20c0-5.52-4.48-10-10-10s-10,4.48-10,10v20h-100v-20c0-5.52-4.48-10-10-10s-10,4.48-10,10v20h-39.55c5.07-55.99,52.26-100,109.55-100Zm180,360H76v-240h360v240Z"/>
      <path d="m256,263.65c-49.63,0-90,40.37-90,90s40.37,90,90,90,90-40.37,90-90-40.37-90-90-90Zm69.27,80h-19.58c-1.05-17.99-4.94-34.82-11.23-48.44,16.34,10.79,27.9,28.23,30.81,48.44Zm-79.27-55.31v55.31h-19.66c1.75-25.99,10.14-46.51,19.66-55.31Zm0,75.31v55.31c-9.52-8.8-17.91-29.31-19.66-55.31h19.66Zm20,55.31v-55.31h19.66c-1.75,25.99-10.14,46.5-19.66,55.31Zm0-75.31v-55.31c9.52,8.8,17.91,29.31,19.66,55.31h-19.66Zm-48.47-48.44c-6.29,13.62-10.18,30.45-11.23,48.44h-19.58c2.9-20.21,14.47-37.65,30.81-48.44Zm-30.81,68.44h19.58c1.05,17.99,4.94,34.82,11.23,48.44-16.34-10.79-27.9-28.23-30.81-48.44Zm107.74,48.44c6.29-13.62,10.17-30.45,11.23-48.44h19.58c-2.9,20.21-14.47,37.65-30.81,48.44Z"/>
    </g>
  </g>
</svg>