<?xml version="1.0" encoding="UTF-8"?>
<svg id="Layer_1" data-name="Layer 1" xmlns="http://www.w3.org/2000/svg" viewBox="0 0 512 512">
  <path d="m261.58,149.49c33.68,0,57.15-40.84,57.15-77.49S294.69,7.95,261.58,7.95s-57.15,26.94-57.15,64.05,23.47,77.49,57.15,77.49Zm-39.67-77.49c0-27.42,16.31-46.58,39.67-46.58s39.68,19.15,39.68,46.58c0,30.85-19.28,60.02-39.68,60.02s-39.67-29.17-39.67-60.02Z"/>
  <path d="m358.49,302.11c-2.19-25.79-14.58-48.71-33.03-64.81l.53-13.63c0-4.39,1.77-8.68,4.87-11.77l89.65-89.36c5.13-5.13,7.95-11.94,7.95-19.2,0-8.36-3.96-16.39-10.58-21.47-9.35-7.25-22.64-7.5-32.32-.6l-98.27,70.24c-3.9,2.78-8.71,4.31-13.54,4.31h-24.35c-4.83,0-9.63-1.53-13.53-4.31l-98.26-70.22c-9.48-6.82-23.07-6.58-32.32.56-6.19,4.76-10.04,11.95-10.54,19.74-.51,7.8,2.37,15.44,7.9,20.96l89.64,89.34c3.14,3.14,4.88,7.41,4.88,12.13l.53,13.21c-1.03.9-2.06,1.82-3.06,2.78-19.56,18.56-30.33,43.62-30.33,70.57s11.95,54.37,32.79,72.84c7.53,6.68,12.71,15.95,14.58,26.12l1.71,9.29c1.94,10.54,11.12,18.2,21.84,18.2h52.68c10.72,0,19.91-7.65,21.84-18.2l1.71-9.27c1.89-10.29,6.88-19.41,14.05-25.68,23.61-20.62,35.63-50.42,32.96-81.76Zm-96.91,16.88c-4.64,0-8.41-3.77-8.41-8.41s3.77-8.41,8.41-8.41,8.41,3.77,8.41,8.41-3.77,8.41-8.41,8.41Zm8.74,15.95c9.99-3.59,17.15-13.16,17.15-24.36,0-14.27-11.61-25.88-25.88-25.88s-25.88,11.61-25.88,25.88c0,11.21,7.16,20.77,17.15,24.36v84.61h-17.61c-2.29,0-4.25-1.63-4.66-3.88l-1.71-9.29c-2.56-13.98-9.73-26.78-20.18-36.04-17.1-15.15-26.91-36.94-26.91-59.76s8.84-42.67,24.88-57.9c14.88-14.12,34.37-21.9,54.87-21.9,1.45,0,2.91.04,4.36.11,16.56.87,31.85,6.88,44.28,16.46.59.63,1.27,1.17,2.03,1.6,16.12,13.26,27.01,32.68,28.87,54.65,2.18,25.74-7.68,50.2-27.05,67.12-10.14,8.85-17.15,21.52-19.75,35.68l-1.71,9.27c-.41,2.25-2.37,3.88-4.66,3.88h-17.61v-84.61Zm-55.67-111.32c-.01-8.98-3.66-17.75-10-24.1l-89.64-89.34c-1.97-1.97-2.99-4.69-2.81-7.46.19-2.81,1.53-5.31,3.77-7.04,3.23-2.5,8.17-2.59,11.48-.2l98.29,70.25c6.84,4.87,15.24,7.56,23.68,7.56h24.35c8.43,0,16.84-2.69,23.68-7.56l98.26-70.23c3.45-2.45,8.18-2.37,11.51.21,2.4,1.84,3.77,4.62,3.77,7.64,0,2.58-1,5.01-2.82,6.83l-89.65,89.36c-6.34,6.34-9.98,15.03-9.99,23.84l-.08,2c-12.49-6.9-26.63-11.14-41.63-11.93-18.51-.98-36.39,3.16-52.11,11.84l-.07-1.66Z"/>
  <path d="m299.15,440.33h-75.13c-4.82,0-8.74,3.92-8.74,8.74s3.92,8.74,8.74,8.74h75.13c4.82,0,8.74-3.92,8.74-8.74s-3.92-8.74-8.74-8.74Z"/>
  <path d="m299.15,461.1h-75.13c-4.82,0-8.74,3.92-8.74,8.74s3.92,8.74,8.74,8.74h75.13c4.82,0,8.74-3.92,8.74-8.74s-3.92-8.74-8.74-8.74Z"/>
  <path d="m285.63,481.88h-48.1c-4.82,0-8.74,3.92-8.74,8.74s3.92,8.74,8.74,8.74h48.1c4.82,0,8.74-3.92,8.74-8.74s-3.92-8.74-8.74-8.74Z"/>
  <path d="m419.72,301.83h-34.73c-4.82,0-8.74,3.92-8.74,8.74s3.92,8.74,8.74,8.74h34.73c4.82,0,8.74-3.92,8.74-8.74s-3.92-8.74-8.74-8.74Z"/>
  <path d="m377.55,277.1c1.01,0,2.02-.18,2.99-.53l32.63-11.88c4.53-1.65,6.87-6.67,5.22-11.2-1.64-4.52-6.67-6.87-11.2-5.22l-32.63,11.88c-4.53,1.65-6.87,6.67-5.22,11.2,1.25,3.44,4.55,5.75,8.21,5.75Z"/>
  <path d="m389.42,203.3c-3.1-3.69-8.62-4.17-12.31-1.08l-26.61,22.32c-3.69,3.1-4.17,8.62-1.08,12.31,1.67,1.98,4.11,3.12,6.7,3.12,2.05,0,4.04-.73,5.61-2.04l26.61-22.32c3.69-3.1,4.17-8.62,1.07-12.31Z"/>
  <path d="m413.17,356.45l-32.63-11.88c-4.53-1.65-9.55.7-11.2,5.22-1.65,4.53.69,9.55,5.22,11.2l32.64,11.88c.96.35,1.97.53,2.98.53,3.66,0,6.96-2.31,8.21-5.75,1.65-4.53-.69-9.55-5.22-11.2Z"/>
  <path d="m388.34,405.53l-26.61-22.32c-3.69-3.09-9.21-2.61-12.31,1.08-3.09,3.69-2.61,9.21,1.08,12.3l26.6,22.32c1.57,1.32,3.56,2.04,5.61,2.04,2.59,0,5.03-1.14,6.7-3.12,3.09-3.69,2.61-9.21-1.08-12.3Z"/>
  <path d="m146.9,310.57c0-4.82-3.92-8.74-8.74-8.74h-34.73c-4.82,0-8.74,3.92-8.74,8.74s3.92,8.74,8.74,8.74h34.73c4.82,0,8.74-3.92,8.74-8.74Z"/>
  <path d="m104.77,253.49c-1.65,4.53.69,9.55,5.22,11.2l32.64,11.88c.97.35,1.97.53,2.99.53,3.66,0,6.96-2.31,8.21-5.75,1.65-4.52-.69-9.55-5.22-11.2l-32.63-11.88c-4.53-1.64-9.55.7-11.2,5.22Z"/>
  <path d="m161.42,237.93c1.57,1.32,3.56,2.04,5.61,2.04,2.59,0,5.03-1.14,6.7-3.12,3.09-3.69,2.61-9.21-1.08-12.31l-26.6-22.32c-3.69-3.09-9.21-2.61-12.31,1.08-3.09,3.69-2.61,9.21,1.08,12.31l26.6,22.32Z"/>
  <path d="m153.82,349.79c-1.65-4.53-6.68-6.87-11.2-5.22l-32.63,11.88c-4.53,1.65-6.87,6.67-5.22,11.2,1.25,3.44,4.55,5.75,8.21,5.75,1.02,0,2.02-.18,2.99-.53l32.63-11.88c4.53-1.65,6.87-6.67,5.22-11.2Z"/>
  <path d="m161.42,383.21l-26.61,22.32c-3.69,3.1-4.17,8.62-1.07,12.31,1.67,1.98,4.11,3.12,6.7,3.12,2.05,0,4.04-.73,5.61-2.04l26.6-22.32c3.69-3.1,4.17-8.62,1.08-12.31-3.1-3.69-8.62-4.17-12.31-1.08Z"/>
</svg>