<?xml version="1.0" encoding="utf-8"?>
<!-- Generator: Adobe Illustrator 27.4.0, SVG Export Plug-In . SVG Version: 6.00 Build 0)  -->
<svg version="1.1" id="Layer_1" xmlns="http://www.w3.org/2000/svg" xmlns:xlink="http://www.w3.org/1999/xlink" x="0px" y="0px"
	 viewBox="0 0 512 512" style="enable-background:new 0 0 512 512;" xml:space="preserve">
<style type="text/css">
	.st0{fill:#FFFFFF;}
</style>
<g>
	<path class="st0" d="M484.7,197.3h-36.5c-3.8-12.3-8.7-24.3-14.8-35.7l25.8-25.8c4.7-4.7,7.2-10.9,7.2-17.5s-2.6-12.8-7.2-17.5
		l-48-48c-9.6-9.6-25.4-9.6-35,0l-25.8,25.8c-10.7-5.7-21.9-10.4-33.4-14.1c-0.7-0.2-1.5-0.5-2.2-0.7V27.3
		c0-13.6-11.1-24.8-24.8-24.8H222c-13.6,0-24.8,11.1-24.8,24.8v36.5c-12.3,3.8-24.3,8.7-35.7,14.8l-25.8-25.8
		c-9.7-9.6-25.4-9.6-35,0L83.3,70.1c-1.8,1.8-2.9,4.3-2.9,6.9s1,5.1,2.9,6.9c3.8,3.8,10,3.8,13.9,0l17.4-17.4c2-2,5.3-2,7.3,0
		l31,31.1c3.1,3.2,8,3.8,11.9,1.5c14-8.2,29.1-14.4,44.7-18.6c4.3-1.1,7.3-5,7.3-9.5V27.3c0-2.8,2.3-5.1,5.1-5.1H290
		c2.8,0,5.1,2.3,5.1,5.1v43.9c0,4.4,3,8.3,7.3,9.5c2.9,0.8,5.8,1.6,8.6,2.5c12.5,4,24.7,9.4,36.1,16c3.8,2.2,8.7,1.6,11.9-1.5l31-31
		c2-2,5.3-2,7.3,0l48,48c1,1,1.5,2.3,1.5,3.7s-0.5,2.7-1.5,3.6L414.4,153c-3.1,3.1-3.8,8-1.6,11.8c0.7,1.2,1.4,2.4,2,3.6
		c7.2,13,12.7,26.8,16.5,41.1c1.1,4.3,5,7.3,9.5,7.3h43.9c2.8,0,5.1,2.3,5.1,5.1V290c0,2.8-2.3,5.1-5.1,5.1h-43.9
		c-4.5,0-8.4,3-9.5,7.3c-4.1,15.7-10.4,30.7-18.5,44.7c-2.2,3.8-1.6,8.7,1.5,11.9l31.1,31.1c1,1,1.5,2.2,1.5,3.6s-0.5,2.7-1.5,3.6
		l-48,48c-2,2-5.3,2-7.3,0l-31.1-31c-3.1-3.1-8-3.8-11.9-1.5c-14,8.2-29.1,14.4-44.7,18.5c-4.3,1.1-7.3,5-7.3,9.5v43.9
		c0,2.8-2.3,5.1-5.1,5.1H222c-2.8,0-5.1-2.3-5.1-5.1v-43.9c0-4.5-3-8.4-7.3-9.5c-15.7-4.1-30.7-10.4-44.7-18.5
		c-3.9-2.2-8.7-1.6-11.9,1.5l-31,31c-2,2-5.3,2-7.3,0l-48.1-48c-1-1-1.5-2.3-1.5-3.6c0-1.4,0.5-2.7,1.5-3.6L97.6,359
		c3.2-3.1,3.8-8,1.5-11.9c-8.2-14-14.4-29-18.5-44.7c-1.1-4.3-5-7.3-9.5-7.3H27.3c-2.8,0-5.1-2.3-5.1-5.1V222c0-2.8,2.3-5.1,5.1-5.1
		h43.9c4.4,0,8.3-3,9.5-7.3c4.1-15.7,10.4-30.7,18.6-44.7c2.2-3.8,1.6-8.7-1.5-11.9l-31.1-31.1c-1-1-1.5-2.2-1.5-3.6
		c0-1.4,0.5-2.7,1.5-3.7l6.3-6.3c1.8-1.8,2.9-4.3,2.9-6.9s-1-5.1-2.9-6.9c-3.8-3.8-10-3.8-13.9,0l-6.3,6.3
		c-4.7,4.7-7.3,10.9-7.3,17.5c0,6.6,2.6,12.8,7.2,17.5l25.8,25.8c-6.1,11.4-11,23.4-14.8,35.7H27.3c-13.6,0-24.8,11.1-24.8,24.8V290
		c0,13.6,11.1,24.8,24.8,24.8h36.5c3.8,12.3,8.7,24.3,14.8,35.7l-25.8,25.8c-4.7,4.7-7.3,10.9-7.3,17.5c0,6.6,2.6,12.9,7.3,17.5
		l48,48c9.7,9.7,25.4,9.7,35,0l25.8-25.8c11.4,6.1,23.4,11,35.7,14.8v36.5c0,13.6,11.1,24.8,24.8,24.8H290
		c13.6,0,24.8-11.1,24.8-24.8v-36.5c12.3-3.8,24.3-8.7,35.7-14.8l25.8,25.8c9.7,9.7,25.4,9.7,35,0l48-48c4.7-4.7,7.2-10.9,7.2-17.5
		s-2.6-12.8-7.2-17.5l-25.8-25.8c6.1-11.4,11-23.4,14.8-35.7h36.5c13.6,0,24.8-11.1,24.8-24.8V222
		C509.5,208.4,498.4,197.3,484.7,197.3L484.7,197.3z"/>
	<path class="st0" d="M296.3,231.4c1.3,0,2.5-0.2,3.7-0.7c4.6-1.9,9.1-2.9,13.3-2.9c2.6,0,5.1-1.1,6.9-3c1.8-1.9,2.8-4.4,2.8-7
		c0-2.6-1.1-5.1-3-6.9c-1.9-1.8-4.4-2.8-7-2.8c-6.6,0.1-13.5,1.5-20.4,4.4c-5,2-7.4,7.8-5.4,12.8C288.7,229,292.3,231.4,296.3,231.4
		L296.3,231.4z"/>
	<path class="st0" d="M342,257.3L342,257.3c-0.2,5.4,3.9,10,9.4,10.2c0.1,0,0.3,0,0.5,0c5.2,0,9.5-4.1,9.8-9.4
		c0.5-10.5-3.7-22.4-11.2-31.8c-1.6-2.1-4-3.4-6.6-3.6c-2.6-0.3-5.2,0.4-7.2,2.1s-3.3,4-3.6,6.6s0.4,5.2,2.1,7.2
		C339.6,244.3,342.3,251.6,342,257.3L342,257.3z"/>
	<path class="st0" d="M160.2,267.6c0.1,0,0.3,0,0.5,0c5.4-0.2,9.6-4.9,9.3-10.2c-0.3-7.2,4.2-18.3,13.3-24.8
		c8-5.6,17.9-6.3,28.7-1.9c2.4,1,5.1,1,7.5-0.1c2.4-1,4.3-2.9,5.3-5.3c1-2.4,1-5.1-0.1-7.5c-1-2.4-2.9-4.3-5.3-5.3
		c-17.1-6.9-33.9-5.5-47.4,4.1c-13.4,9.5-22.3,26.6-21.6,41.7C150.6,263.5,154.9,267.6,160.2,267.6L160.2,267.6z"/>
	<path class="st0" d="M107,273.4c7.1,22.8,24.6,36.4,33,41.9c-1,23.7,5,42.1,18.1,54.8c16.3,15.8,38.8,17.7,48.9,17.6
		c4,5.5,11,12.1,22.3,15.3c2.9,0.8,5.9,1.2,8.7,1.2c7.6,0,13.8-2.9,17.9-5.7c4.2,2.8,10.3,5.7,18,5.7c2.9,0,5.8-0.4,8.7-1.2
		c11.3-3.1,18.3-9.8,22.3-15.3c10.2,0.1,32.7-1.8,48.9-17.6c13-12.7,19.1-31.1,18.1-54.8c8.4-5.5,25.9-19.1,33-41.9
		c6.3-20.2,3-42.4-9.6-66.1c0.8-8.8,1.5-35.4-15.5-56.6c-12.9-16.1-32.7-25.3-58.8-27.4c-6.8-7.2-23.8-21.2-46.7-13.2
		c-7.2,2.5-13.5,6.9-18.4,12.8c-4.9-5.9-11.2-10.3-18.4-12.8c-22.9-8-39.9,6-46.7,13.2c-26.1,2.1-45.9,11.3-58.8,27.4
		c-17,21.2-16.3,47.8-15.5,56.6C104,230.9,100.7,253.2,107,273.4L107,273.4z M157.6,196.3c2.5-0.9,4.4-2.7,5.5-5.1
		c1.1-2.4,1.2-5,0.3-7.5c-0.9-2.5-2.7-4.4-5.1-5.5c-2.4-1.1-5-1.2-7.5-0.3c-4.7,1.7-9.2,4-13.5,6.9c1.8-8.4,5.1-15.7,10-21.8
		c9.9-12.4,26.4-19.2,48.8-20.3c2.9-0.1,5.6-1.6,7.4-4c0.5-0.6,11.9-15.5,27.6-10.1c9,3.1,15.1,11.9,15.1,21.8v231
		c-2.4,1.9-6.5,4-11.6,2.6c-8.9-2.5-12.6-9-13.1-10.2l-8.3-23.2c-0.9-2.5-2.7-4.5-5-5.6c-2.4-1.1-5-1.3-7.5-0.4
		c-5.1,1.8-7.8,7.4-5.9,12.5l3.7,10.3c-8.4-1-18.9-4-26.7-11.6c-7.5-7.4-11.6-18.2-12.1-32.4c4.9,1.1,10.2,1.7,15.3,1.7
		c7.7,0,15-1.3,21.2-3.8c9.2,6.5,19.6,8.8,26.4,8.8c1.3,0,2.5-0.1,3.6-0.2c2.6-0.4,4.9-1.7,6.4-3.9c1.6-2.1,2.2-4.7,1.8-7.3
		c-0.8-5.4-5.8-9.1-11.1-8.3c-3,0.4-13.3-1.5-19.8-8.6c-5.6-6.2-7.1-15-4.4-26.1c0.6-2.5,0.2-5.2-1.2-7.4c-1.4-2.2-3.5-3.8-6.1-4.4
		c-2.6-0.6-5.2-0.2-7.4,1.1s-3.8,3.5-4.4,6.1c-3.1,12.7-2.4,24.1,2.1,33.7c-9.1,1.5-20.1,0-27.4-3.8c0,0-0.1,0-0.1-0.1l-0.2-0.1
		c-0.2-0.1-21.8-11-28.8-33.5c-4.8-15.6-1.7-33.5,9.5-53.3C136.2,212.7,144.1,201.2,157.6,196.3L157.6,196.3z M308.5,138.7
		c1.8,2.4,4.5,3.8,7.4,4c22.4,1.1,38.8,7.9,48.7,20.2c4.9,6,8.2,13.3,10,21.8c-4.3-2.9-8.8-5.2-13.4-6.9c-5.1-1.9-10.7,0.8-12.6,5.9
		s0.8,10.7,5.9,12.6c13.5,4.9,21.4,16.4,22.4,18c11.1,19.7,14.3,37.6,9.5,53.2c-6.9,22.4-28.6,33.5-28.9,33.7l-0.1,0
		c-0.1,0-0.1,0.1-0.2,0.1c-7.2,3.8-18.2,5.3-27.3,3.8c4.5-9.6,5.2-21,2.1-33.7c-0.6-2.5-2.2-4.7-4.4-6.1c-2.2-1.4-4.9-1.8-7.4-1.2
		c-2.5,0.6-4.7,2.2-6.1,4.4s-1.8,4.9-1.2,7.4c2.7,11.1,1.2,19.9-4.4,26.1c-6.5,7.1-16.8,9.1-19.8,8.6c-2.6-0.4-5.2,0.3-7.3,1.8
		c-2.1,1.6-3.5,3.9-3.8,6.5c-0.4,2.6,0.3,5.2,1.8,7.3c1.6,2.1,3.9,3.5,6.5,3.9c1.1,0.2,2.3,0.2,3.6,0.2c6.8,0,17.2-2.3,26.4-8.8
		c6.2,2.5,13.5,3.8,21.2,3.8c5.1,0,10.3-0.6,15.3-1.7c-0.5,14.1-4.6,25-12.1,32.4c-7.8,7.6-18.2,10.6-26.7,11.6l3.7-10.3
		c0.9-2.5,0.7-5.1-0.4-7.5s-3.1-4.1-5.6-5s-5.1-0.7-7.5,0.4c-2.4,1.1-4.1,3.1-5,5.6l-8.3,23.2c-0.6,1.2-4.2,7.7-13.1,10.2
		c-5.1,1.4-9.3-0.8-11.6-2.6v-231c0-9.9,6-18.6,15-21.8C296.6,123.2,308,138.1,308.5,138.7L308.5,138.7z"/>
</g>
</svg>
